<?xml version="1.0" encoding="UTF-8" standalone="no"?>
<svg
   xmlns:osb="http://www.openswatchbook.org/uri/2009/osb"
   xmlns:dc="http://purl.org/dc/elements/1.1/"
   xmlns:cc="http://creativecommons.org/ns#"
   xmlns:rdf="http://www.w3.org/1999/02/22-rdf-syntax-ns#"
   xmlns:svg="http://www.w3.org/2000/svg"
   xmlns="http://www.w3.org/2000/svg"
   xmlns:xlink="http://www.w3.org/1999/xlink"
   xmlns:sodipodi="http://sodipodi.sourceforge.net/DTD/sodipodi-0.dtd"
   xmlns:inkscape="http://www.inkscape.org/namespaces/inkscape"
   inkscape:export-ydpi="96"
   inkscape:export-xdpi="96"
   inkscape:export-filename="C:\Users\School\Desktop\CTR\hear3.png"
   inkscape:version="1.0 (4035a4fb49, 2020-05-01)"
   sodipodi:docname="hear3.svg"
   id="svg8"
   version="1.1"
   viewBox="0 0 210 297"
   height="297mm"
   width="210mm">
  <defs
     id="defs2"><linearGradient
   osb:paint="solid"
   id="linearGradient1587">
  <stop
     id="stop1585"
     offset="0"
     style="stop-color:#000000;stop-opacity:1;" />
</linearGradient>
<inkscape:path-effect
   effect="bspline"
   id="path-effect1260"
   is_visible="true"
   lpeversion="1"
   weight="33.333333"
   steps="2"
   helper_size="0"
   apply_no_weight="true"
   apply_with_weight="true"
   only_selected="false" />
<inkscape:path-effect
   effect="bspline"
   id="path-effect1256"
   is_visible="true"
   lpeversion="1"
   weight="33.333333"
   steps="2"
   helper_size="0"
   apply_no_weight="true"
   apply_with_weight="true"
   only_selected="false" />
<inkscape:path-effect
   effect="bspline"
   id="path-effect1252"
   is_visible="true"
   lpeversion="1"
   weight="33.333333"
   steps="2"
   helper_size="0"
   apply_no_weight="true"
   apply_with_weight="true"
   only_selected="false" />
<inkscape:path-effect
   effect="bspline"
   id="path-effect1248"
   is_visible="true"
   lpeversion="1"
   weight="33.333333"
   steps="2"
   helper_size="0"
   apply_no_weight="true"
   apply_with_weight="true"
   only_selected="false" />
<inkscape:path-effect
   effect="bspline"
   id="path-effect1244"
   is_visible="true"
   lpeversion="1"
   weight="33.333333"
   steps="2"
   helper_size="0"
   apply_no_weight="true"
   apply_with_weight="true"
   only_selected="false" />
<inkscape:path-effect
   effect="bspline"
   id="path-effect1240"
   is_visible="true"
   lpeversion="1"
   weight="33.333333"
   steps="2"
   helper_size="0"
   apply_no_weight="true"
   apply_with_weight="true"
   only_selected="false" />
<inkscape:path-effect
   effect="bspline"
   id="path-effect1236"
   is_visible="true"
   lpeversion="1"
   weight="33.333333"
   steps="2"
   helper_size="0"
   apply_no_weight="true"
   apply_with_weight="true"
   only_selected="false" />
<inkscape:path-effect
   only_selected="false"
   apply_with_weight="true"
   apply_no_weight="true"
   helper_size="0"
   steps="2"
   weight="33.333333"
   lpeversion="1"
   is_visible="true"
   id="path-effect1232"
   effect="bspline" />
<inkscape:path-effect
   only_selected="false"
   apply_with_weight="true"
   apply_no_weight="true"
   helper_size="0"
   steps="2"
   weight="33.333333"
   lpeversion="1"
   is_visible="true"
   id="path-effect1228"
   effect="bspline" />
<inkscape:path-effect
   only_selected="false"
   apply_with_weight="true"
   apply_no_weight="true"
   helper_size="0"
   steps="2"
   weight="33.333333"
   lpeversion="1"
   is_visible="true"
   id="path-effect1224"
   effect="bspline" />
<inkscape:path-effect
   only_selected="false"
   apply_with_weight="true"
   apply_no_weight="true"
   helper_size="0"
   steps="2"
   weight="33.333333"
   lpeversion="1"
   is_visible="true"
   id="path-effect1220"
   effect="bspline" />
<inkscape:path-effect
   only_selected="false"
   apply_with_weight="true"
   apply_no_weight="true"
   helper_size="0"
   steps="2"
   weight="33.333333"
   lpeversion="1"
   is_visible="true"
   id="path-effect1216"
   effect="bspline" />
<inkscape:path-effect
   only_selected="false"
   apply_with_weight="true"
   apply_no_weight="true"
   helper_size="0"
   steps="2"
   weight="33.333333"
   lpeversion="1"
   is_visible="true"
   id="path-effect1208"
   effect="bspline" />
<inkscape:path-effect
   only_selected="false"
   apply_with_weight="true"
   apply_no_weight="true"
   helper_size="0"
   steps="2"
   weight="33.333333"
   lpeversion="1"
   is_visible="true"
   id="path-effect1194"
   effect="bspline" />
<rect
   id="rect1170"
   height="15.341271"
   width="27.314946"
   y="288.11655"
   x="166.13474" />
<linearGradient
   id="linearGradient1062"
   inkscape:collect="always">
  <stop
     id="stop1058"
     offset="0"
     style="stop-color:#000000;stop-opacity:1;" />
  <stop
     id="stop1060"
     offset="1"
     style="stop-color:#000000;stop-opacity:0;" />
</linearGradient>
<rect
   id="rect1014"
   height="113.00156"
   width="158.27701"
   y="206.92007"
   x="192.70133" />
<inkscape:path-effect
   fuse_tolerance="0"
   hide_knot="false"
   vertical_pattern="false"
   prop_units="false"
   tang_offset="0"
   normal_offset="0"
   spacing="0"
   scale_y_rel="false"
   prop_scale="0.379686"
   copytype="single_stretched"
   pattern="M 0,5 C 0,2.24 2.24,0 5,0 7.76,0 10,2.24 10,5 10,7.76 7.76,10 5,10 2.24,10 0,7.76 0,5 Z"
   lpeversion="1"
   is_visible="true"
   id="path-effect27786"
   effect="skeletal" />
<inkscape:path-effect
   fuse_tolerance="0"
   hide_knot="false"
   vertical_pattern="false"
   prop_units="false"
   tang_offset="0"
   normal_offset="0"
   spacing="0"
   scale_y_rel="false"
   prop_scale="0.379686"
   copytype="single_stretched"
   pattern="M 0,5 C 0,2.24 2.24,0 5,0 7.76,0 10,2.24 10,5 10,7.76 7.76,10 5,10 2.24,10 0,7.76 0,5 Z"
   lpeversion="1"
   is_visible="true"
   id="path-effect27782"
   effect="skeletal" />
<inkscape:path-effect
   fuse_tolerance="0"
   hide_knot="false"
   vertical_pattern="false"
   prop_units="false"
   tang_offset="0"
   normal_offset="0"
   spacing="0"
   scale_y_rel="false"
   prop_scale="0.379686"
   copytype="single_stretched"
   pattern="M 0,5 C 0,2.24 2.24,0 5,0 7.76,0 10,2.24 10,5 10,7.76 7.76,10 5,10 2.24,10 0,7.76 0,5 Z"
   lpeversion="1"
   is_visible="true"
   id="path-effect3466"
   effect="skeletal" />
<marker
   inkscape:isstock="true"
   style="overflow:visible"
   id="Arrow1Lstart"
   refX="0.0"
   refY="0.0"
   orient="auto"
   inkscape:stockid="Arrow1Lstart">
  <path
     transform="scale(0.8) translate(12.5,0)"
     style="fill-rule:evenodd;stroke:#800000;stroke-width:1pt;stroke-opacity:1;fill:#800000;fill-opacity:1"
     d="M 0.0,0.0 L 5.0,-5.0 L -12.5,0.0 L 5.0,5.0 L 0.0,0.0 z "
     id="path1143" />
</marker>
<inkscape:path-effect
   effect="skeletal"
   id="path-effect1094"
   is_visible="true"
   lpeversion="1"
   pattern="m 140.00635,-78.947457 c -0.69327,-2.671512 -3.42411,-4.277045 -6.09562,-3.583779 -2.67152,0.693265 -4.27704,3.4241 -3.58378,6.095614 0.69326,2.671513 3.42411,4.277046 6.09561,3.583781 2.67152,-0.693269 4.27705,-3.424103 3.58379,-6.095616 z"
   copytype="single_stretched"
   prop_scale="1"
   scale_y_rel="false"
   spacing="0"
   normal_offset="0"
   tang_offset="0"
   prop_units="false"
   vertical_pattern="false"
   hide_knot="false"
   fuse_tolerance="0" />
<inkscape:path-effect
   effect="bspline"
   id="path-effect1092"
   is_visible="true"
   lpeversion="1"
   weight="33"
   steps="2"
   helper_size="0"
   apply_no_weight="true"
   apply_with_weight="true"
   only_selected="false" />
<inkscape:path-effect
   effect="skeletal"
   id="path-effect1073"
   is_visible="true"
   lpeversion="1"
   pattern="m 124.98481,11.621304 c -0.76353,-2.652281 -3.53578,-4.1851949 -6.18806,-3.4216583 -2.65229,0.7635241 -4.18519,3.5357793 -3.42167,6.1880603 0.76352,2.652291 3.53578,4.185195 6.18806,3.421671 2.6523,-0.763526 4.1852,-3.535782 3.42167,-6.188073 z"
   copytype="single_stretched"
   prop_scale="1"
   scale_y_rel="false"
   spacing="0"
   normal_offset="0"
   tang_offset="0"
   prop_units="false"
   vertical_pattern="false"
   hide_knot="false"
   fuse_tolerance="0" />
<inkscape:path-effect
   effect="bspline"
   id="path-effect1071"
   is_visible="true"
   lpeversion="1"
   weight="33"
   steps="2"
   helper_size="0"
   apply_no_weight="true"
   apply_with_weight="true"
   only_selected="false" />
<inkscape:path-effect
   effect="skeletal"
   id="path-effect196"
   is_visible="true"
   lpeversion="1"
   pattern="m 160.91218,-53.498614 c 0,-2.76 -2.24,-5 -5,-5 -2.76,0 -5,2.24 -5,5 0,2.76 2.24,5 5,5 2.76,0 5,-2.24 5,-5 z"
   copytype="single_stretched"
   prop_scale="0.8636728"
   scale_y_rel="false"
   spacing="0"
   normal_offset="0"
   tang_offset="0"
   prop_units="false"
   vertical_pattern="false"
   hide_knot="false"
   fuse_tolerance="0" />
<inkscape:path-effect
   effect="bspline"
   id="path-effect194"
   is_visible="true"
   lpeversion="1"
   weight="33.333333"
   steps="2"
   helper_size="0"
   apply_no_weight="true"
   apply_with_weight="true"
   only_selected="false" />
<inkscape:path-effect
   fuse_tolerance="0"
   hide_knot="false"
   vertical_pattern="false"
   prop_units="false"
   tang_offset="0"
   normal_offset="0"
   spacing="0"
   scale_y_rel="false"
   prop_scale="1"
   copytype="single_stretched"
   pattern="m -78.497115,-32.806222 c -0.441613,-2.724441 1.411119,-5.29399 4.13556,-5.735602 2.72444,-0.441613 5.29399,1.411119 5.735602,4.135561 0.441611,2.724442 -1.41112,5.293992 -4.135561,5.735603 -2.724442,0.44161 -5.293991,-1.411121 -5.735601,-4.135562 z"
   lpeversion="1"
   is_visible="true"
   id="path-effect190"
   effect="skeletal" />
<inkscape:path-effect
   only_selected="false"
   apply_with_weight="true"
   apply_no_weight="true"
   helper_size="0"
   steps="2"
   weight="33"
   lpeversion="1"
   is_visible="true"
   id="path-effect188"
   effect="bspline" />
<inkscape:path-effect
   effect="skeletal"
   id="path-effect163"
   is_visible="true"
   lpeversion="1"
   pattern="m 59.349861,42.298804 c 0,-2.76 2.24,-5 5,-5 2.76,0 5,2.24 5,5 0,2.76 -2.24,5 -5,5 -2.76,0 -5,-2.24 -5,-5 z"
   copytype="single_stretched"
   prop_scale="1"
   scale_y_rel="false"
   spacing="0"
   normal_offset="0"
   tang_offset="0"
   prop_units="false"
   vertical_pattern="false"
   hide_knot="false"
   fuse_tolerance="0" />
<inkscape:path-effect
   effect="bspline"
   id="path-effect161"
   is_visible="true"
   lpeversion="1"
   weight="33.333333"
   steps="2"
   helper_size="0"
   apply_no_weight="true"
   apply_with_weight="true"
   only_selected="false" />
<inkscape:path-effect
   fuse_tolerance="0"
   hide_knot="false"
   vertical_pattern="false"
   prop_units="false"
   tang_offset="0"
   normal_offset="0"
   spacing="0"
   scale_y_rel="false"
   prop_scale="1"
   copytype="single_stretched"
   pattern="M 0,5 C 0,2.24 2.24,0 5,0 7.76,0 10,2.24 10,5 10,7.76 7.76,10 5,10 2.24,10 0,7.76 0,5 Z"
   lpeversion="1"
   is_visible="true"
   id="path-effect130"
   effect="skeletal" />
<inkscape:path-effect
   only_selected="false"
   apply_with_weight="true"
   apply_no_weight="true"
   helper_size="0"
   steps="2"
   weight="33.333333"
   lpeversion="1"
   is_visible="true"
   id="path-effect128"
   effect="bspline" />
<inkscape:path-effect
   fuse_tolerance="0"
   hide_knot="false"
   vertical_pattern="false"
   prop_units="false"
   tang_offset="0"
   normal_offset="0"
   spacing="0"
   scale_y_rel="false"
   prop_scale="1"
   copytype="single_stretched"
   pattern="M 0,5 C 0,2.24 2.24,0 5,0 7.76,0 10,2.24 10,5 10,7.76 7.76,10 5,10 2.24,10 0,7.76 0,5 Z"
   lpeversion="1"
   is_visible="true"
   id="path-effect101"
   effect="skeletal" />
<inkscape:path-effect
   only_selected="false"
   apply_with_weight="true"
   apply_no_weight="true"
   helper_size="0"
   steps="2"
   weight="33.333333"
   lpeversion="1"
   is_visible="true"
   id="path-effect99"
   effect="bspline" />
<inkscape:path-effect
   fuse_tolerance="0"
   hide_knot="false"
   vertical_pattern="false"
   prop_units="false"
   tang_offset="0"
   normal_offset="0"
   spacing="0"
   scale_y_rel="false"
   prop_scale="1"
   copytype="single_stretched"
   pattern="M 0,5 C 0,2.24 2.24,0 5,0 7.76,0 10,2.24 10,5 10,7.76 7.76,10 5,10 2.24,10 0,7.76 0,5 Z"
   lpeversion="1"
   is_visible="true"
   id="path-effect95"
   effect="skeletal" />
<inkscape:path-effect
   fuse_tolerance="0"
   hide_knot="false"
   vertical_pattern="false"
   prop_units="false"
   tang_offset="0"
   normal_offset="0"
   spacing="0"
   scale_y_rel="false"
   prop_scale="1"
   copytype="single_stretched"
   pattern="M 0,5 C 0,2.24 2.24,0 5,0 7.76,0 10,2.24 10,5 10,7.76 7.76,10 5,10 2.24,10 0,7.76 0,5 Z"
   lpeversion="1"
   is_visible="true"
   id="path-effect75"
   effect="skeletal" />
<inkscape:path-effect
   fuse_tolerance="0"
   hide_knot="false"
   vertical_pattern="false"
   prop_units="false"
   tang_offset="0"
   normal_offset="0"
   spacing="0"
   scale_y_rel="false"
   prop_scale="1"
   copytype="single_stretched"
   pattern="M 0,5 C 0,2.24 2.24,0 5,0 7.76,0 10,2.24 10,5 10,7.76 7.76,10 5,10 2.24,10 0,7.76 0,5 Z"
   lpeversion="1"
   is_visible="true"
   id="path-effect69"
   effect="skeletal" />
<inkscape:path-effect
   fuse_tolerance="0"
   hide_knot="false"
   vertical_pattern="false"
   prop_units="false"
   tang_offset="0"
   normal_offset="0"
   spacing="0"
   scale_y_rel="false"
   prop_scale="1"
   copytype="single_stretched"
   pattern="M 0,5 C 0,2.24 2.24,0 5,0 7.76,0 10,2.24 10,5 10,7.76 7.76,10 5,10 2.24,10 0,7.76 0,5 Z"
   lpeversion="1"
   is_visible="true"
   id="path-effect63"
   effect="skeletal" />
<inkscape:path-effect
   fuse_tolerance="0"
   hide_knot="false"
   vertical_pattern="false"
   prop_units="false"
   tang_offset="0"
   normal_offset="0"
   spacing="0"
   scale_y_rel="false"
   prop_scale="1"
   copytype="single_stretched"
   pattern="M 0,5 C 0,2.24 2.24,0 5,0 7.76,0 10,2.24 10,5 10,7.76 7.76,10 5,10 2.24,10 0,7.76 0,5 Z"
   lpeversion="1"
   is_visible="true"
   id="path-effect57"
   effect="skeletal" />
<inkscape:path-effect
   fuse_tolerance="0"
   hide_knot="false"
   vertical_pattern="false"
   prop_units="false"
   tang_offset="0"
   normal_offset="0"
   spacing="0"
   scale_y_rel="false"
   prop_scale="1"
   copytype="single_stretched"
   pattern="M 0,5 C 0,2.24 2.24,0 5,0 7.76,0 10,2.24 10,5 10,7.76 7.76,10 5,10 2.24,10 0,7.76 0,5 Z"
   lpeversion="1"
   is_visible="true"
   id="path-effect49"
   effect="skeletal" />
<inkscape:path-effect
   fuse_tolerance="0"
   hide_knot="false"
   vertical_pattern="false"
   prop_units="false"
   tang_offset="0"
   normal_offset="0"
   spacing="0"
   scale_y_rel="false"
   prop_scale="1"
   copytype="single_stretched"
   pattern="M 0,5 C 0,2.24 2.24,0 5,0 7.76,0 10,2.24 10,5 10,7.76 7.76,10 5,10 2.24,10 0,7.76 0,5 Z"
   lpeversion="1"
   is_visible="true"
   id="path-effect1027"
   effect="skeletal" />
<inkscape:path-effect
   only_selected="false"
   apply_with_weight="true"
   apply_no_weight="true"
   helper_size="0"
   steps="2"
   weight="33.333333"
   lpeversion="1"
   is_visible="true"
   id="path-effect1025"
   effect="bspline" />
<inkscape:path-effect
   fuse_tolerance="0"
   hide_knot="false"
   vertical_pattern="false"
   prop_units="false"
   tang_offset="0"
   normal_offset="0"
   spacing="0"
   scale_y_rel="false"
   prop_scale="1"
   copytype="single_stretched"
   pattern="M 0,5 C 0,2.24 2.24,0 5,0 7.76,0 10,2.24 10,5 10,7.76 7.76,10 5,10 2.24,10 0,7.76 0,5 Z"
   lpeversion="1"
   is_visible="true"
   id="path-effect1021"
   effect="skeletal" />
<inkscape:path-effect
   only_selected="false"
   apply_with_weight="true"
   apply_no_weight="true"
   helper_size="0"
   steps="2"
   weight="33.333333"
   lpeversion="1"
   is_visible="true"
   id="path-effect959"
   effect="bspline" />
<inkscape:path-effect
   fuse_tolerance="0"
   hide_knot="false"
   vertical_pattern="false"
   prop_units="false"
   tang_offset="0"
   normal_offset="0"
   spacing="0"
   scale_y_rel="false"
   prop_scale="1"
   copytype="single_stretched"
   pattern="M 0,5 C 0,2.24 2.24,0 5,0 7.76,0 10,2.24 10,5 10,7.76 7.76,10 5,10 2.24,10 0,7.76 0,5 Z"
   lpeversion="1"
   is_visible="true"
   id="path-effect961"
   effect="skeletal" />
<linearGradient
   gradientUnits="userSpaceOnUse"
   y2="211.98891"
   x2="374.35464"
   y1="211.98891"
   x1="224.51309"
   id="linearGradient1064"
   xlink:href="#linearGradient1062"
   inkscape:collect="always" />

	
	
	
</defs>
  <sodipodi:namedview
     inkscape:snap-bbox-midpoints="true"
     inkscape:snap-bbox-edge-midpoints="true"
     inkscape:snap-bbox="true"
     inkscape:snap-nodes="false"
     inkscape:object-nodes="false"
     inkscape:snap-others="false"
     showborder="false"
     inkscape:window-maximized="1"
     inkscape:window-y="-8"
     inkscape:window-x="1912"
     inkscape:window-height="1027"
     inkscape:window-width="1920"
     showguides="false"
     showgrid="false"
     inkscape:document-rotation="0"
     inkscape:current-layer="layer2"
     inkscape:document-units="px"
     inkscape:cy="1679.5799"
     inkscape:cx="843.99509"
     inkscape:zoom="0.1767767"
     inkscape:pageshadow="2"
     inkscape:pageopacity="0.0"
     borderopacity="1.0"
     bordercolor="#666666"
     pagecolor="#ffffff"
     id="base" />
  <metadata
     id="metadata5">
    <rdf:RDF>
      <cc:Work
         rdf:about="">
        <dc:format>image/svg+xml</dc:format>
        <dc:type
           rdf:resource="http://purl.org/dc/dcmitype/StillImage" />
        <dc:title></dc:title>
      </cc:Work>
    </rdf:RDF>
  </metadata>
  <g
     style="display:inline"
     inkscape:label="heart"
     id="layer2"
     inkscape:groupmode="layer">
    <text
       style="fill:black;fill-opacity:1;line-height:1.25;stroke:none;font-family:sans-serif;font-style:normal;font-weight:normal;font-size:10.58333336px;white-space:pre;shape-inside:url(#rect1014);"
       id="text1012"
       xml:space="preserve" />
    <text
       transform="matrix(4.1816722,0,0,4.1816722,-1336.301,-398.9767)"
       id="text1020"
       y="215.52615"
       x="224.50639"
       style="font-style:normal;font-weight:normal;font-size:10.5833px;line-height:1.25;font-family:sans-serif;white-space:pre;inline-size:206.452;fill:#000000;fill-opacity:1;stroke:url(#linearGradient1064);stroke-width:0.264583;stroke-opacity:0.164659"
       xml:space="preserve"><tspan
         x="224.50639"
         y="215.52615"><tspan
           style="font-style:normal;font-variant:normal;font-weight:normal;font-stretch:normal;font-family:'Cooper Black';-inkscape-font-specification:'Cooper Black, ';stroke:url(#linearGradient1064);stroke-width:0.264583;stroke-opacity:0.164659">Mid-Columbia Transfer Plus</tspan></tspan></text>
    <text
       style="fill:black;fill-opacity:1;line-height:1.25;stroke:none;font-family:sans-serif;font-style:normal;font-weight:normal;font-size:10.58333336px;white-space:pre;shape-inside:url(#rect1170);"
       id="text1168"
       xml:space="preserve" />
    <text
       id="text1176"
       y="517.33557"
       x="-148.62361"
       style="font-style:normal;font-weight:normal;font-size:10.5833px;line-height:1.25;font-family:sans-serif;fill:#000000;fill-opacity:1;stroke:none;stroke-width:0.264583"
       xml:space="preserve"><tspan
         style="font-style:normal;font-variant:normal;font-weight:normal;font-stretch:normal;font-family:'Lucida Calligraphy';-inkscape-font-specification:'Lucida Calligraphy';stroke-width:0.264583"
         y="517.33557"
         x="-148.62361"
         id="tspan1174"
         sodipodi:role="line">Bring out your dead...</tspan></text>
    <path
       transform="scale(0.26458333)"
       d="M -917.50781 476.75586 L -917.50781 1676.7559 L 282.49219 1676.7559 L 282.49219 476.75586 L -917.50781 476.75586 z M -476.85352 635.58594 C -473.94785 635.58594 -471.04901 635.73172 -468.1582 636.01367 C -465.26736 636.29555 -462.38454 636.71347 -459.51172 637.25391 C -456.7222 637.77869 -453.94275 638.42248 -451.17383 639.17578 C -448.40487 639.92908 -445.64569 640.79098 -442.90039 641.75586 C -440.15509 642.7207 -437.42362 643.78786 -434.70508 644.94727 C -431.98654 646.10667 -429.28243 647.36026 -426.59375 648.69727 C -421.21635 651.37124 -415.90159 654.38166 -410.66211 657.66406 C -405.42263 660.94647 -400.25845 664.49898 -395.18164 668.25391 C -390.10479 672.00883 -385.11411 675.96703 -380.22461 680.05859 C -375.33515 684.15016 -370.54653 688.37563 -365.86914 692.66797 C -361.19175 696.9603 -356.62611 701.31859 -352.18555 705.67578 C -347.74494 710.03301 -343.42902 714.38957 -339.25 718.67578 C -337.85936 720.1021 -336.44957 721.53702 -335.08984 722.94531 C -339.18681 724.33459 -343.25599 726.02406 -347.28516 727.96484 C -351.31428 729.90567 -355.30329 732.09821 -359.24023 734.49023 C -363.17718 736.8823 -367.06243 739.4738 -370.88281 742.2168 C -374.7032 744.95975 -378.45923 747.85401 -382.13867 750.84766 C -385.81816 753.84127 -389.42134 756.93413 -392.93555 760.07812 C -396.44971 763.22205 -399.87471 766.41732 -403.19922 769.61133 C -404.03037 770.40983 -404.85552 771.20819 -405.67383 772.00586 C -406.49217 772.80357 -407.30422 773.60116 -408.10938 774.39648 C -408.91449 775.19181 -409.71236 775.98595 -410.50391 776.77734 C -411.29549 777.56874 -412.07982 778.35666 -412.85742 779.14258 C -413.63506 779.92849 -414.40661 780.71139 -415.16992 781.49023 C -415.93324 782.26908 -416.68893 783.04422 -417.4375 783.81445 C -418.18611 784.58468 -418.92666 785.34935 -419.66016 786.10938 C -420.39369 786.8694 -421.11986 787.62474 -421.83789 788.37305 C -422.3425 787.8472 -422.84992 787.31889 -423.36133 786.78711 C -423.87274 786.25529 -424.38815 785.72082 -424.90625 785.18359 C -425.42435 784.64637 -425.94599 784.10655 -426.4707 783.56445 C -426.99541 783.02239 -427.52347 782.47801 -428.05469 781.93164 C -428.58586 781.38527 -429.1206 780.8353 -429.6582 780.28516 C -430.1958 779.73501 -430.73542 779.18422 -431.2793 778.63086 C -431.82321 778.0775 -432.36985 777.5228 -432.91992 776.9668 C -433.46996 776.41075 -434.02392 775.85308 -434.58008 775.29492 C -439.02915 770.82983 -443.67102 766.30575 -448.48047 761.86133 C -451.54684 759.02767 -454.68121 756.22659 -457.87695 753.49414 C -461.07269 750.76173 -464.32885 748.09799 -467.64062 745.53906 C -470.95236 742.98013 -474.31999 740.52604 -477.73438 738.21289 C -481.1488 735.89974 -484.61154 733.72752 -488.11523 731.73242 C -491.61897 729.73736 -495.16252 727.91916 -498.74219 726.31445 C -502.32185 724.7097 -505.93782 723.31788 -509.58008 722.17578 C -513.2223 721.03365 -516.89252 720.14234 -520.58398 719.53516 C -524.27549 718.92786 -527.98751 718.60547 -531.71484 718.60547 C -535.53175 718.60547 -539.31469 718.74558 -543.06055 719.02148 C -546.8064 719.29747 -550.51445 719.71027 -554.17969 720.25195 C -557.84492 720.79367 -561.46791 721.46462 -565.04297 722.26172 C -568.61802 723.05882 -572.14578 723.98123 -575.62109 725.02344 C -579.28206 726.12131 -582.88517 727.35328 -586.42383 728.71289 C -589.96249 730.0725 -593.43693 731.56003 -596.8418 733.16992 C -600.24666 734.77985 -603.58222 736.51253 -606.8418 738.36133 C -610.10141 740.21012 -613.28388 742.17571 -616.38672 744.25195 C -619.4896 746.32824 -622.51261 748.51432 -625.44727 750.80664 C -628.38192 753.099 -631.2294 755.49712 -633.98438 757.99414 C -636.73935 760.49112 -639.40104 763.08711 -641.96484 765.77734 C -644.52865 768.46761 -646.99428 771.25095 -649.35547 774.12305 C -651.71665 776.99511 -653.97402 779.95556 -656.12109 782.99805 C -658.26821 786.04057 -660.30505 789.16566 -662.22656 792.36719 C -664.14807 795.56871 -665.95421 798.8462 -667.63867 802.19531 C -669.32317 805.54443 -670.88635 808.96584 -672.32227 812.45117 C -673.75822 815.9365 -675.06623 819.48561 -676.24219 823.0957 C -677.41815 826.70583 -678.46072 830.37613 -679.36523 834.09961 C -680.26971 837.82305 -681.03662 841.60037 -681.6582 845.42578 C -681.81619 846.39905 -681.88202 847.40143 -682.02148 848.38086 C -682.09292 846.16436 -682.20707 843.95417 -682.20703 841.72852 C -682.2065 763.20437 -638.45794 694.90357 -574.01367 659.87695 C -568.58249 656.97824 -563.04257 654.25421 -557.33594 651.83984 C -554.24379 650.5316 -551.11413 649.29658 -547.94727 648.13672 C -544.7804 646.97686 -541.57708 645.89193 -538.33984 644.88477 C -535.1026 643.8776 -531.83065 642.94779 -528.52734 642.09766 C -525.22407 641.24753 -521.88843 640.47585 -518.52344 639.78711 C -515.15845 639.09833 -511.76416 638.4918 -508.3418 637.96875 C -504.9194 637.44566 -501.46957 637.0073 -497.99414 636.6543 C -494.51871 636.30125 -491.01832 636.03424 -487.49414 635.85547 C -483.97 635.6767 -480.42207 635.5859 -476.85352 635.58594 z M -175.7793 635.58594 C -172.21074 635.58594 -168.66285 635.6767 -165.13867 635.85547 C -161.61453 636.03416 -158.1141 636.30129 -154.63867 636.6543 C -151.16321 637.00734 -147.71338 637.44566 -144.29102 637.96875 C -140.86862 638.4918 -137.4744 639.09833 -134.10938 639.78711 C -130.74439 640.47585 -127.40874 641.24753 -124.10547 642.09766 C -120.80216 642.94779 -117.53021 643.8776 -114.29297 644.88477 C -111.05573 645.89193 -107.85241 646.97686 -104.68555 648.13672 C -101.51868 649.29658 -98.389058 650.5316 -95.296875 651.83984 C -89.112585 654.4563 -83.082133 657.36488 -77.222656 660.54883 C -71.363141 663.73278 -65.673872 667.19142 -60.173828 670.9082 C -54.673784 674.62499 -49.361812 678.59949 -44.255859 682.81445 C -39.149944 687.02946 -34.249469 691.48554 -29.572266 696.16406 C -24.895062 700.84255 -20.442311 705.74417 -16.228516 710.85156 C -12.014683 715.95895 -8.0399857 721.27181 -4.3242188 726.77344 C -0.60845194 732.27503 2.8481318 737.96499 6.03125 743.82617 C 9.2143303 749.68735 12.122508 755.72015 14.738281 761.90625 C 16.046187 764.99926 17.281847 768.1291 18.441406 771.29688 C 19.600965 774.46465 20.684502 777.67006 21.691406 780.9082 C 22.69831 784.14643 23.628575 787.4184 24.478516 790.72266 C 25.328418 794.02691 26.098517 797.36254 26.787109 800.72852 C 27.475701 804.09453 28.082533 807.49064 28.605469 810.91406 C 29.128404 814.33745 29.566914 817.78914 29.919922 821.26562 C 30.272892 824.74207 30.539978 828.24433 30.71875 831.76953 C 30.897522 835.29477 30.988281 838.8425 30.988281 842.41211 C 30.988319 847.31057 30.794353 852.18553 30.451172 857.03516 C 30.123865 853.11934 29.647085 849.24518 29.025391 845.41992 C 28.403734 841.59466 27.637014 837.81903 26.732422 834.0957 C 25.827868 830.37241 24.785413 826.70174 23.609375 823.0918 C 22.433413 819.48186 21.123494 815.93241 19.6875 812.44727 C 18.251544 808.96209 16.688366 805.54232 15.003906 802.19336 C 13.319446 798.8444 11.513271 795.56665 9.5917969 792.36523 C 7.6703229 789.1639 5.6333645 786.03846 3.4863281 782.99609 C 1.3393297 779.95373 -0.91623509 776.99304 -3.2773438 774.12109 C -5.6384523 771.24914 -8.1042396 768.46551 -10.667969 765.77539 C -13.231698 763.08524 -15.89354 760.48906 -18.648438 757.99219 C -21.403297 755.49528 -24.251008 753.09693 -27.185547 750.80469 C -30.120085 748.51244 -33.141375 746.32617 -36.244141 744.25 C -39.346867 742.17379 -42.531551 740.20806 -45.791016 738.35938 C -49.05048 736.51066 -52.384313 734.77977 -55.789062 733.16992 C -59.193774 731.56007 -62.668486 730.07242 -66.207031 728.71289 C -69.745576 727.35332 -73.348915 726.12128 -77.009766 725.02344 C -80.485079 723.98123 -84.012836 723.05882 -87.587891 722.26172 C -91.162946 721.46462 -94.785937 720.79367 -98.451172 720.25195 C -102.11641 719.71027 -105.82446 719.29739 -109.57031 719.02148 C -113.31616 718.74531 -117.09915 718.60547 -120.91602 718.60547 C -124.6136 718.60547 -128.3072 718.92165 -131.99023 719.51953 C -135.67323 720.11738 -139.34473 720.99792 -142.99609 722.12305 C -146.64746 723.24821 -150.28017 724.61929 -153.88281 726.20117 C -157.48546 727.78302 -161.05886 729.57497 -164.5957 731.54297 C -168.13255 733.51097 -171.63198 735.65399 -175.08594 737.9375 C -178.5399 740.22105 -181.94874 742.64529 -185.30273 745.17383 C -188.65676 747.70233 -191.95642 750.33617 -195.19336 753.03906 C -198.4303 755.74203 -201.60419 758.51356 -204.70703 761.32031 C -209.71275 765.84838 -214.53362 770.4654 -219.13281 775.02344 C -223.73201 779.58143 -228.10951 784.08049 -232.22852 788.37305 C -238.0511 782.30509 -244.32998 775.82257 -250.98633 769.3457 C -254.3145 766.10729 -257.73655 762.87122 -261.24414 759.6875 C -264.75169 756.50378 -268.34407 753.37403 -272.01172 750.34961 C -275.67933 747.32519 -279.4221 744.40502 -283.23047 741.64453 C -287.03883 738.88404 -290.91207 736.28257 -294.8418 733.89062 C -298.77149 731.49868 -302.75733 729.31723 -306.78906 727.39844 C -310.62695 725.57194 -314.51261 724.02401 -318.42578 722.71875 C -317.14528 721.39815 -315.89127 720.09892 -314.58008 718.76172 C -292.62858 696.37482 -266.58182 672.07867 -238.5293 655.37891 C -234.58948 653.07445 -230.64839 650.76273 -226.64258 648.79492 C -225.55661 648.24901 -224.45555 647.8042 -223.36523 647.28516 C -221.66044 646.49365 -219.96045 645.67268 -218.24609 644.95117 C -215.48719 643.79006 -212.71599 642.72191 -209.93555 641.75586 C -207.1551 640.78977 -204.36431 639.92578 -201.56641 639.17188 C -198.7685 638.41793 -195.96363 637.77475 -193.15234 637.25 C -190.26524 636.71111 -187.37274 636.29487 -184.47656 636.01367 C -181.58042 635.73221 -178.68069 635.58594 -175.7793 635.58594 z M -574.42383 726.46875 C -576.50725 731.09848 -578.35794 735.85483 -579.96484 740.7207 C -581.57179 745.58666 -582.93429 750.56166 -584.03516 755.63477 C -585.13602 760.70791 -585.97774 765.87947 -586.54297 771.13086 C -587.10839 776.38229 -587.39645 781.71448 -587.39648 787.11523 C -587.39652 790.78172 -587.26129 794.43246 -586.99219 798.06055 C -586.72293 801.68859 -586.31938 805.29441 -585.78711 808.87109 C -585.25484 812.44781 -584.59378 815.99542 -583.80469 819.50781 C -583.0156 823.0202 -582.10026 826.49846 -581.06055 829.93359 C -580.02084 833.36877 -578.8564 836.76047 -577.57227 840.10547 C -576.28817 843.4505 -574.88365 846.74635 -573.36133 849.98828 C -571.83905 853.23017 -570.19958 856.4191 -568.44531 859.54492 C -566.69104 862.67078 -564.82178 865.73556 -562.8418 868.73242 C -560.78554 871.84464 -558.60911 874.88284 -556.31641 877.8418 C -554.02371 880.80075 -551.61429 883.67772 -549.0918 886.46875 C -546.5693 889.25982 -543.93314 891.96566 -541.1875 894.57422 C -538.4419 897.1827 -535.58709 899.69616 -532.625 902.10742 L -329.625 1081.1016 L -420.86523 1161.5508 L -554.72266 1042.8789 L -604.66797 998.59766 C -650.16169 961.35963 -677.15381 906.31457 -679.03711 847.75586 C -678.90029 846.79291 -678.83503 845.80655 -678.67969 844.84961 C -678.06858 841.08841 -677.3151 837.37581 -676.42578 833.71484 C -675.53646 830.05388 -674.51166 826.44404 -673.35547 822.89453 C -672.19924 819.34506 -670.9138 815.85647 -669.50195 812.42969 C -668.09011 809.00287 -666.55264 805.63862 -664.89648 802.3457 C -663.2403 799.05283 -661.46349 795.82942 -659.57422 792.68164 C -657.68498 789.53386 -655.68328 786.46216 -653.57227 783.4707 C -651.46121 780.47928 -649.24146 777.56805 -646.91992 774.74414 C -644.59838 771.9203 -642.17509 769.18413 -639.6543 766.53906 C -637.13354 763.894 -634.51535 761.34182 -631.80664 758.88672 C -629.09793 756.43165 -626.29943 754.07416 -623.41406 751.82031 C -620.5287 749.56647 -617.55467 747.41644 -614.50391 745.375 C -611.45315 743.3336 -608.32403 741.40175 -605.11914 739.58398 C -601.91425 737.76622 -598.63479 736.06138 -595.28711 734.47852 C -591.93939 732.89565 -588.52417 731.43444 -585.04492 730.09766 C -581.56568 728.76091 -578.02334 727.54818 -574.42383 726.46875 z M -80.863281 728.00586 L -80.861328 728.00586 C -77.26284 729.08503 -73.722364 730.29645 -70.244141 731.63281 C -66.765917 732.96922 -63.350602 734.43126 -60.003906 736.01367 C -56.657172 737.59608 -53.379687 739.29804 -50.175781 741.11523 C -46.971838 742.93243 -43.840868 744.8635 -40.791016 746.9043 C -37.741165 748.94509 -34.771216 751.09449 -31.886719 753.34766 C -29.002183 755.60082 -26.204012 757.95776 -23.496094 760.41211 C -20.788176 762.86642 -18.170391 765.42018 -15.650391 768.06445 C -13.130353 770.70869 -10.707575 773.44461 -8.3867188 776.26758 C -6.0658243 779.09058 -3.8487315 781.99972 -1.7382812 784.99023 C 0.37213134 787.98075 2.3749285 791.05246 4.2636719 794.19922 C 6.1523774 797.34605 7.9282112 800.56944 9.5839844 803.86133 C 11.23972 807.15322 12.776035 810.51369 14.1875 813.93945 C 15.599002 817.36518 16.885085 820.85393 18.041016 824.40234 C 19.196984 827.95075 20.222194 831.55892 21.111328 835.21875 C 22.0005 838.87862 22.75416 842.5915 23.365234 846.35156 C 23.976346 850.11163 24.44594 853.91851 24.767578 857.76758 C 24.521606 861.24251 24.187382 864.70229 23.765625 868.14453 C 23.343868 871.58677 22.832952 875.01251 22.238281 878.41602 C 21.643573 881.81952 20.963968 885.20187 20.199219 888.56055 C 19.434431 891.91922 18.586291 895.25278 17.654297 898.56055 C 16.722341 901.86828 15.707656 905.14966 14.611328 908.40039 C 13.515001 911.65116 12.335952 914.87286 11.078125 918.06055 C 9.820336 921.24824 8.4828598 924.40296 7.0664062 927.52148 C 5.6499527 930.64005 4.1562302 933.72231 2.5839844 936.76562 C 1.0117765 939.80894 -0.6381159 942.81337 -2.3632812 945.77539 C -4.0884465 948.73744 -5.8884593 951.65662 -7.7636719 954.53125 C -9.6388845 957.40592 -11.590856 960.23637 -13.613281 963.01758 C -15.635706 965.79878 -17.731634 968.53116 -19.898438 971.21289 C -22.065203 973.89447 -24.301104 976.5236 -26.609375 979.09961 C -28.917646 981.67566 -31.297237 984.19767 -33.744141 986.66211 C -36.191045 989.12651 -38.706398 991.53423 -41.289062 993.88086 C -43.871727 996.22745 -46.520738 998.51355 -49.236328 1000.7363 L -106.49805 1051.502 L -233.30469 1163.9258 L -324.8457 1245.084 L -417.45703 1162.9766 L -326.24023 1082.5469 L -325.91992 1082.8281 L -325.59961 1082.5469 L -122.65039 903.59766 C -119.68917 901.18707 -116.83473 898.67409 -114.08984 896.06641 C -111.34496 893.45872 -108.70935 890.75696 -106.1875 887.9668 C -103.66565 885.17667 -101.25694 882.29981 -98.964844 879.3418 C -96.672711 876.38383 -94.497053 873.34369 -92.441406 870.23242 C -90.461841 867.23631 -88.593658 864.17393 -86.839844 861.04883 C -85.086067 857.92376 -83.445617 854.73723 -81.923828 851.49609 C -80.402001 848.25496 -78.998485 844.95944 -77.714844 841.61523 C -76.431165 838.271 -75.26781 834.8777 -74.228516 831.44336 C -73.189183 828.00898 -72.275078 824.53113 -71.486328 821.01953 C -70.697541 817.50793 -70.033959 813.96257 -69.501953 810.38672 C -68.969909 806.81083 -68.56793 803.20729 -68.298828 799.58008 C -68.029801 795.95287 -67.894493 792.30233 -67.894531 788.63672 C -67.894569 783.23736 -68.183159 777.90628 -68.748047 772.65625 C -69.312935 767.40618 -70.15361 762.23585 -71.253906 757.16406 C -72.35424 752.09224 -73.715966 747.11854 -75.322266 742.25391 C -76.928603 737.38924 -78.780384 732.63442 -80.863281 728.00586 z M 186.99023 795.74023 C 194.19871 796.07783 200.65974 801.10765 203.58398 812.00781 C 205.92763 820.74438 206.14822 829.69813 207.26367 838.57812 C 214.27315 894.35526 213.71281 950.4221 215.57227 1006.4629 C 218.34481 1090.0213 182.34365 1212.7409 171.86328 1235.0137 C 131.89202 1319.9621 59.991549 1325.9724 5.0078125 1389.127 C -45.87914 1447.575 -38.14644 1507.7566 -69.246094 1513.8438 C -118.89412 1523.5622 -160.02306 1514.5323 -191.41797 1471 C -205.85395 1450.9822 -206.00483 1447.4232 -192.54688 1427.0469 C -179.79535 1407.7413 -167.76436 1388.1534 -163.12109 1364.7559 C -155.59685 1326.8419 -161.08734 1272.115 -104.35742 1247.7207 C -77.488231 1236.1659 -49.858966 1226.0573 -25.501953 1208.4805 C 42.675623 1159.2842 58.540508 1112.8696 89.720703 1084.8594 C 154.10099 1027.0252 186.00603 1094.3832 96.056641 1184.748 C 90.608716 1190.224 85.93723 1196.5136 80.910156 1202.4297 C 105.32515 1195.0264 191.25009 1106.9569 158.24805 1058.7012 C 150.94604 1048.024 149.50631 1036.9124 150.94922 1025.3516 C 159.29903 958.46587 143.7321 913.5598 157.64258 827.67578 C 160.88681 807.64504 174.9761 795.17757 186.99023 795.74023 z M -826.88477 795.74219 C -814.87066 795.17967 -800.78134 807.64735 -797.53711 827.67773 C -783.62663 913.56175 -799.19498 958.46647 -790.8457 1025.3516 C -789.40279 1036.9125 -790.84163 1048.0235 -798.14258 1058.7012 C -831.14409 1106.9575 -745.21911 1195.027 -720.80469 1202.4297 C -725.83172 1196.513 -730.50272 1190.2229 -735.95117 1184.748 C -825.90056 1094.3832 -793.99608 1027.0272 -729.61523 1084.8613 C -698.43398 1112.8715 -682.57019 1159.2856 -614.39258 1208.4824 C -590.03503 1226.0582 -562.40683 1236.1678 -535.53711 1247.7227 C -478.80769 1272.1175 -484.29715 1326.8438 -476.77344 1364.7578 C -472.13017 1388.1554 -460.09918 1407.7418 -447.34766 1427.0469 C -433.8897 1447.4221 -434.04164 1450.9811 -448.47656 1471 C -479.87143 1514.5323 -520.99846 1523.5642 -570.64648 1513.8457 C -601.74667 1507.758 -594.01539 1447.577 -644.90234 1389.1289 C -699.88608 1325.9744 -771.78463 1319.9641 -811.75586 1235.0156 C -822.23622 1212.7428 -858.23934 1090.0227 -855.4668 1006.4648 C -853.60682 950.42405 -854.16711 894.35721 -847.1582 838.58008 C -846.04218 829.70008 -845.82216 820.74438 -843.47852 812.00781 C -840.55407 801.10745 -834.09323 796.0797 -826.88477 795.74219 z M -768.67578 853.96094 C -765.05741 854.10131 -761.13326 855.58661 -757.34375 858.20703 C -745.21744 866.59229 -734.35528 886.67259 -738.9375 912.45898 C -738.94506 912.51341 -738.94582 912.50877 -738.96094 912.57227 C -738.9753 912.63576 -738.99698 912.72822 -739.02344 912.84766 C -739.07711 913.08641 -739.15419 913.43469 -739.25586 913.88672 C -739.45946 914.79086 -739.75795 916.10793 -740.13477 917.77734 C -740.88833 921.11614 -741.95981 925.86801 -743.24609 931.56055 C -745.81874 942.94566 -749.24519 958.09375 -752.66797 973.23242 C -759.51356 1003.5097 -766.35156 1033.7461 -766.35156 1033.7461 L -766.35156 1033.748 C -767.48977 1038.6075 -770.41213 1042.0434 -775.36523 1042.9043 C -776.75878 1043.1467 -777.94996 1042.8365 -778.91211 1042.1035 C -779.87426 1041.3705 -780.60948 1040.2352 -781.17773 1038.834 C -782.31428 1036.0315 -782.79388 1032.1481 -782.94922 1028.123 C -783.1046 1024.098 -782.92933 1019.9328 -782.7207 1016.5957 C -782.61677 1014.9271 -782.50307 1013.466 -782.41992 1012.334 C -782.33715 1011.202 -782.28554 1010.3836 -782.29688 1010.0703 C -783.84848 964.85318 -783.62722 919.63518 -783.19727 874.41797 C -783.09711 863.88159 -779.70821 857.67919 -774.76172 855.20508 C -772.9068 854.27736 -770.84682 853.87665 -768.67578 853.96094 z M -769.73633 854.23633 C -777.06219 854.50218 -782.79705 860.67091 -782.92773 874.42188 C -783.35773 919.63825 -783.5806 964.85082 -782.0293 1010.0605 C -781.9316 1012.9135 -786.07572 1044.4879 -775.41016 1042.6328 C -770.55433 1041.7888 -767.7341 1038.4689 -766.61328 1033.6836 C -766.61328 1033.6836 -739.26013 912.73967 -739.20117 912.4082 C -733.06781 877.89309 -754.73575 853.69196 -769.73633 854.23633 z M 129.83984 854.23633 C 137.16571 854.50213 142.90216 860.67091 143.0332 874.42188 C 143.46373 919.63825 143.68469 964.85082 142.13281 1010.0605 C 142.0353 1012.9135 146.18115 1044.4879 135.51562 1042.6328 C 130.66033 1041.7883 127.84066 1038.4683 126.71875 1033.6836 C 126.71875 1033.6836 99.365148 912.73971 99.306641 912.4082 C 93.173275 877.89344 114.83926 853.69208 129.83984 854.23633 z M -768.68359 854.51562 L -768.68164 854.51562 C -765.18743 854.65396 -761.36558 856.08828 -757.64062 858.66406 C -745.72079 866.90657 -734.91837 886.77443 -739.46484 912.35938 C -739.45728 912.31515 -739.47121 912.38534 -739.48633 912.44922 C -739.50145 912.51196 -739.52004 912.6036 -739.54688 912.72266 C -739.60017 912.96114 -739.6792 913.31168 -739.78125 913.76367 C -739.98497 914.66758 -740.28142 915.98296 -740.6582 917.65234 C -741.41177 920.99107 -742.48516 925.74305 -743.77148 931.43555 C -746.3441 942.82058 -749.76859 957.96879 -753.19141 973.10742 C -760.037 1003.3847 -766.875 1033.6211 -766.875 1033.6211 C -767.97885 1038.3309 -770.69929 1041.5344 -775.45703 1042.3613 C -776.72986 1042.5828 -777.74075 1042.3118 -778.59375 1041.6621 C -779.44671 1041.0123 -780.13912 1039.9637 -780.68359 1038.6211 C -781.77263 1035.9358 -782.26208 1032.095 -782.41602 1028.1016 C -782.56984 1024.1081 -782.39229 1019.9585 -782.18555 1016.6309 C -782.08161 1014.967 -781.97025 1013.5086 -781.88672 1012.375 C -781.80357 1011.2414 -781.74811 1010.4506 -781.76172 1010.0508 C -783.3128 964.84843 -783.09012 919.6393 -782.66016 874.42383 C -782.56113 864.00632 -779.2434 858.06001 -774.52734 855.70117 C -772.75883 854.81657 -770.7801 854.43274 -768.68359 854.51562 z M -716.35352 908.19141 C -713.25086 908.22338 -710.11903 909.83688 -707.35352 912.60742 C -699.97875 919.99549 -695.03804 935.63801 -699.48242 952.33203 C -702.96711 965.42307 -723.71921 1031.9735 -733.40625 1050.5391 C -735.97055 1055.4528 -738.4884 1058.234 -741.4082 1058.7383 C -744.32804 1059.2425 -747.49468 1057.4354 -751.30078 1053.4531 C -757.28158 1047.1939 -757.97682 1039.9987 -756.33008 1032.0898 C -748.68394 995.36074 -740.48863 958.76374 -729.66406 922.84961 C -727.17063 914.57698 -723.48318 910.13039 -719.43164 908.70312 C -718.41877 908.34626 -717.38771 908.18007 -716.35352 908.19141 z M -716.35156 908.4668 C -721.38529 908.41555 -726.30905 912.64926 -729.4082 922.93164 C -740.22888 958.83277 -748.42279 995.42013 -756.06836 1032.1465 C -757.70501 1040.0071 -757.02592 1047.0678 -751.10938 1053.2598 C -743.54488 1061.1744 -738.74158 1060.179 -733.64258 1050.4082 C -724.0066 1031.9405 -703.21629 965.31112 -699.74219 952.25977 C -693.66512 929.43299 -705.27737 908.57954 -716.35156 908.4668 z M 76.457031 908.4668 C 81.490763 908.41555 86.414696 912.64926 89.513672 922.93164 C 100.33382 958.83277 108.52777 995.42013 116.17383 1032.1465 C 117.80999 1040.0071 117.13192 1047.0678 111.21484 1053.2598 C 103.65035 1061.1744 98.846516 1060.179 93.748047 1050.4082 C 84.111008 1031.9405 63.322327 965.31112 59.847656 952.25977 C 53.770953 929.43299 65.382821 908.57954 76.457031 908.4668 z M -716.34961 908.74023 C -713.41182 908.77047 -710.42419 910.30336 -707.72852 913.00391 C -700.54008 920.20534 -695.60697 935.67894 -700.00195 952.1875 C -703.46551 965.19917 -724.29399 1031.9095 -733.87891 1050.2793 C -736.41361 1055.1364 -738.84785 1057.736 -741.49609 1058.1934 C -744.1443 1058.6507 -747.16152 1056.9988 -750.91992 1053.0664 C -756.77218 1046.9418 -757.43327 1040.0174 -755.80664 1032.2051 C -748.16168 995.48153 -739.96912 958.9018 -729.15234 923.01367 C -726.68711 914.83451 -723.08136 910.57088 -719.25977 909.22461 C -718.30434 908.88823 -717.32888 908.73037 -716.34961 908.74023 z M -684.76172 967.50195 C -684.3714 967.48173 -683.9777 967.49308 -683.58008 967.53711 C -681.19429 967.80137 -678.68339 969.25634 -676.12109 972.32422 C -671.46736 977.89649 -670.62756 985.61758 -672.16016 994.4707 C -673.69272 1003.3239 -677.59248 1013.3395 -682.47461 1023.5977 C -692.23894 1044.1141 -705.94212 1065.6087 -712.53906 1080.5195 C -712.92522 1081.3925 -713.82822 1082.0742 -714.99023 1082.457 C -716.15221 1082.8399 -717.58486 1082.9221 -719.07422 1082.543 C -722.05294 1081.7847 -725.23541 1079.1609 -726.82031 1073.459 C -729.99013 1062.0551 -726.91931 1038.3489 -703.6582 991.76172 C -702.97513 990.39368 -701.77149 987.46245 -700.15234 984.11133 C -698.53319 980.76025 -696.49548 976.98049 -694.10742 973.86914 C -691.7194 970.7578 -688.97982 968.29931 -685.92188 967.6543 C -685.53965 967.5736 -685.15204 967.52217 -684.76172 967.50195 z M 44.867188 967.50195 C 45.257249 967.52217 45.64512 967.5736 46.027344 967.6543 C 49.085246 968.29931 51.824834 970.7578 54.212891 973.86914 C 56.600947 976.98049 58.640578 980.76025 60.259766 984.11133 C 61.878953 987.46245 63.082551 990.39368 63.765625 991.76172 C 87.026538 1038.3489 90.095595 1062.0551 86.925781 1073.459 C 85.340874 1079.1609 82.160362 1081.7847 79.181641 1082.543 C 77.692242 1082.9221 76.257719 1082.8398 75.095703 1082.457 C 73.933725 1082.0742 73.030723 1081.3925 72.644531 1080.5195 C 66.047555 1065.6087 52.346327 1044.1141 42.582031 1023.5977 C 37.699863 1013.3395 33.798223 1003.3239 32.265625 994.4707 C 30.733064 985.61758 31.57283 977.89649 36.226562 972.32422 C 38.788781 969.25634 41.299833 967.8013 43.685547 967.53711 C 44.083172 967.49308 44.477126 967.48173 44.867188 967.50195 z M -684.74805 967.77539 C -694.17954 968.2774 -701.24634 987.5356 -703.41992 991.88867 C -749.91699 1085.0127 -715.51387 1086.5794 -712.7832 1080.4062 C -699.55395 1050.5046 -657.98682 994.46062 -676.32422 972.50391 C -679.28012 968.96474 -682.10723 967.63483 -684.74805 967.77539 z M 44.853516 967.77539 C 42.212729 967.63483 39.385471 968.96474 36.429688 972.50391 C 18.092289 994.46062 59.659418 1050.5046 72.888672 1080.4062 C 75.619343 1086.5794 110.02242 1085.0127 63.525391 991.88867 C 61.351808 987.5356 54.284896 968.2774 44.853516 967.77539 z M 44.837891 968.04883 C 45.201991 968.06839 45.561162 968.11739 45.917969 968.19336 C 48.77257 968.79548 51.441964 971.14844 53.791016 974.20898 C 56.140143 977.26953 58.166547 981.02174 59.777344 984.35547 C 61.388141 987.6892 62.579128 990.59578 63.287109 992.01367 C 86.523078 1038.5506 89.500298 1062.1892 86.410156 1073.3066 C 84.865048 1078.8653 81.839569 1081.2984 79.052734 1082.0078 C 77.659336 1082.3623 76.320188 1082.2812 75.259766 1081.9316 C 74.199344 1081.5824 73.429279 1080.9633 73.132812 1080.293 C 66.50046 1065.3021 52.806677 1043.8254 43.064453 1023.3555 C 38.193322 1013.1205 34.312251 1003.1378 32.794922 994.37305 C 31.277706 985.60828 32.117864 978.08972 36.632812 972.68359 C 39.137658 969.68435 41.504265 968.32091 43.734375 968.08008 C 44.106073 968.04002 44.47379 968.02927 44.837891 968.04883 z M -684.73242 968.05078 C -684.36806 968.03099 -683.99865 968.03983 -683.62695 968.08008 C -681.39681 968.32083 -679.03234 969.68435 -676.52734 972.68359 C -672.0124 978.08972 -671.17216 985.60828 -672.68945 994.37305 C -674.20671 1003.1378 -678.0859 1013.1205 -682.95703 1023.3555 C -692.69925 1043.8254 -706.39503 1065.3021 -713.02734 1080.293 C -713.32404 1080.9633 -714.09384 1081.5823 -715.1543 1081.9316 C -716.21476 1082.2809 -717.55191 1082.3624 -718.94531 1082.0078 C -721.73215 1081.2984 -724.75962 1078.8673 -726.30469 1073.3086 C -729.39487 1062.1912 -726.41765 1038.5506 -703.18164 992.01367 C -702.47366 990.59578 -701.28459 987.6892 -699.67383 984.35547 C -698.06307 981.02174 -696.0346 977.27149 -693.68555 974.21094 C -691.33649 971.15039 -688.66909 968.79548 -685.81445 968.19336 C -685.45763 968.11815 -685.09678 968.07058 -684.73242 968.05078 z "
       style="display:inline;fill:#561420;fill-opacity:0.85098;fill-rule:nonzero;stroke:none;stroke-width:1.48617;stroke-miterlimit:4;stroke-dasharray:none;stroke-opacity:0.349398"
       id="rect1262" />
  </g>
  <g
     style="display:none"
     inkscape:label="heart 1"
     id="layer3"
     inkscape:groupmode="layer">
    <text
       id="text1039"
       y="45.974171"
       x="50.187176"
       style="font-style:normal;font-variant:normal;font-weight:normal;font-stretch:normal;font-size:14.4572px;line-height:1.25;font-family:'Segoe Script';-inkscape-font-specification:'Segoe Script';display:inline;stroke-width:0.264584"
       xml:space="preserve"><tspan
         style="font-style:normal;font-variant:normal;font-weight:bold;font-stretch:normal;font-family:'Segoe Script';-inkscape-font-specification:'Segoe Script';stroke-width:0.264584"
         y="45.974171"
         x="50.187176"
         id="tspan1037"
         sodipodi:role="line">Compassionate</tspan><tspan
         id="tspan1041"
         style="font-style:normal;font-variant:normal;font-weight:bold;font-stretch:normal;font-family:'Segoe Script';-inkscape-font-specification:'Segoe Script';stroke-width:0.264584"
         y="64.049171"
         x="50.187176"
         sodipodi:role="line">Transfer &amp; Removal</tspan></text>
  </g>
</svg>
