<?xml version="1.0" encoding="UTF-8" standalone="no"?>
<svg
   xmlns:osb="http://www.openswatchbook.org/uri/2009/osb"
   xmlns:dc="http://purl.org/dc/elements/1.1/"
   xmlns:cc="http://creativecommons.org/ns#"
   xmlns:rdf="http://www.w3.org/1999/02/22-rdf-syntax-ns#"
   xmlns:svg="http://www.w3.org/2000/svg"
   xmlns="http://www.w3.org/2000/svg"
   xmlns:xlink="http://www.w3.org/1999/xlink"
   xmlns:sodipodi="http://sodipodi.sourceforge.net/DTD/sodipodi-0.dtd"
   xmlns:inkscape="http://www.inkscape.org/namespaces/inkscape"
   inkscape:export-ydpi="96"
   inkscape:export-xdpi="96"
   inkscape:export-filename="C:\Users\School\Desktop\CTR\hear3.png"
   inkscape:version="1.0 (4035a4fb49, 2020-05-01)"
   sodipodi:docname="heart_outline.svg"
   id="svg8"
   version="1.1"
   viewBox="0 0 317.49999 317.50001"
   height="1200"
   width="1200">
  <defs
     id="defs2"><linearGradient
   osb:paint="solid"
   id="linearGradient1587">
  <stop
     id="stop1585"
     offset="0"
     style="stop-color:#000000;stop-opacity:1;" />
</linearGradient>
<inkscape:path-effect
   effect="bspline"
   id="path-effect1260"
   is_visible="true"
   lpeversion="1"
   weight="33.333333"
   steps="2"
   helper_size="0"
   apply_no_weight="true"
   apply_with_weight="true"
   only_selected="false" />
<inkscape:path-effect
   effect="bspline"
   id="path-effect1256"
   is_visible="true"
   lpeversion="1"
   weight="33.333333"
   steps="2"
   helper_size="0"
   apply_no_weight="true"
   apply_with_weight="true"
   only_selected="false" />
<inkscape:path-effect
   effect="bspline"
   id="path-effect1252"
   is_visible="true"
   lpeversion="1"
   weight="33.333333"
   steps="2"
   helper_size="0"
   apply_no_weight="true"
   apply_with_weight="true"
   only_selected="false" />
<inkscape:path-effect
   effect="bspline"
   id="path-effect1248"
   is_visible="true"
   lpeversion="1"
   weight="33.333333"
   steps="2"
   helper_size="0"
   apply_no_weight="true"
   apply_with_weight="true"
   only_selected="false" />
<inkscape:path-effect
   effect="bspline"
   id="path-effect1244"
   is_visible="true"
   lpeversion="1"
   weight="33.333333"
   steps="2"
   helper_size="0"
   apply_no_weight="true"
   apply_with_weight="true"
   only_selected="false" />
<inkscape:path-effect
   effect="bspline"
   id="path-effect1240"
   is_visible="true"
   lpeversion="1"
   weight="33.333333"
   steps="2"
   helper_size="0"
   apply_no_weight="true"
   apply_with_weight="true"
   only_selected="false" />
<inkscape:path-effect
   effect="bspline"
   id="path-effect1236"
   is_visible="true"
   lpeversion="1"
   weight="33.333333"
   steps="2"
   helper_size="0"
   apply_no_weight="true"
   apply_with_weight="true"
   only_selected="false" />
<inkscape:path-effect
   only_selected="false"
   apply_with_weight="true"
   apply_no_weight="true"
   helper_size="0"
   steps="2"
   weight="33.333333"
   lpeversion="1"
   is_visible="true"
   id="path-effect1232"
   effect="bspline" />
<inkscape:path-effect
   only_selected="false"
   apply_with_weight="true"
   apply_no_weight="true"
   helper_size="0"
   steps="2"
   weight="33.333333"
   lpeversion="1"
   is_visible="true"
   id="path-effect1228"
   effect="bspline" />
<inkscape:path-effect
   only_selected="false"
   apply_with_weight="true"
   apply_no_weight="true"
   helper_size="0"
   steps="2"
   weight="33.333333"
   lpeversion="1"
   is_visible="true"
   id="path-effect1224"
   effect="bspline" />
<inkscape:path-effect
   only_selected="false"
   apply_with_weight="true"
   apply_no_weight="true"
   helper_size="0"
   steps="2"
   weight="33.333333"
   lpeversion="1"
   is_visible="true"
   id="path-effect1220"
   effect="bspline" />
<inkscape:path-effect
   only_selected="false"
   apply_with_weight="true"
   apply_no_weight="true"
   helper_size="0"
   steps="2"
   weight="33.333333"
   lpeversion="1"
   is_visible="true"
   id="path-effect1216"
   effect="bspline" />
<inkscape:path-effect
   only_selected="false"
   apply_with_weight="true"
   apply_no_weight="true"
   helper_size="0"
   steps="2"
   weight="33.333333"
   lpeversion="1"
   is_visible="true"
   id="path-effect1208"
   effect="bspline" />
<inkscape:path-effect
   only_selected="false"
   apply_with_weight="true"
   apply_no_weight="true"
   helper_size="0"
   steps="2"
   weight="33.333333"
   lpeversion="1"
   is_visible="true"
   id="path-effect1194"
   effect="bspline" />
<rect
   id="rect1170"
   height="15.341271"
   width="27.314945"
   y="288.11655"
   x="166.13474" />
<linearGradient
   id="linearGradient1062"
   inkscape:collect="always">
  <stop
     id="stop1058"
     offset="0"
     style="stop-color:#000000;stop-opacity:1;" />
  <stop
     id="stop1060"
     offset="1"
     style="stop-color:#000000;stop-opacity:0;" />
</linearGradient>
<rect
   id="rect1014"
   height="113.00156"
   width="158.27701"
   y="206.92007"
   x="192.70132" />
<inkscape:path-effect
   fuse_tolerance="0"
   hide_knot="false"
   vertical_pattern="false"
   prop_units="false"
   tang_offset="0"
   normal_offset="0"
   spacing="0"
   scale_y_rel="false"
   prop_scale="0.379686"
   copytype="single_stretched"
   pattern="M 0,5 C 0,2.24 2.24,0 5,0 7.76,0 10,2.24 10,5 10,7.76 7.76,10 5,10 2.24,10 0,7.76 0,5 Z"
   lpeversion="1"
   is_visible="true"
   id="path-effect27786"
   effect="skeletal" />
<inkscape:path-effect
   fuse_tolerance="0"
   hide_knot="false"
   vertical_pattern="false"
   prop_units="false"
   tang_offset="0"
   normal_offset="0"
   spacing="0"
   scale_y_rel="false"
   prop_scale="0.379686"
   copytype="single_stretched"
   pattern="M 0,5 C 0,2.24 2.24,0 5,0 7.76,0 10,2.24 10,5 10,7.76 7.76,10 5,10 2.24,10 0,7.76 0,5 Z"
   lpeversion="1"
   is_visible="true"
   id="path-effect27782"
   effect="skeletal" />
<inkscape:path-effect
   fuse_tolerance="0"
   hide_knot="false"
   vertical_pattern="false"
   prop_units="false"
   tang_offset="0"
   normal_offset="0"
   spacing="0"
   scale_y_rel="false"
   prop_scale="0.379686"
   copytype="single_stretched"
   pattern="M 0,5 C 0,2.24 2.24,0 5,0 7.76,0 10,2.24 10,5 10,7.76 7.76,10 5,10 2.24,10 0,7.76 0,5 Z"
   lpeversion="1"
   is_visible="true"
   id="path-effect3466"
   effect="skeletal" />
<marker
   inkscape:isstock="true"
   style="overflow:visible"
   id="Arrow1Lstart"
   refX="0"
   refY="0"
   orient="auto"
   inkscape:stockid="Arrow1Lstart">
  <path
     transform="matrix(0.8,0,0,0.8,10,0)"
     style="fill:#800000;fill-opacity:1;fill-rule:evenodd;stroke:#800000;stroke-width:1pt;stroke-opacity:1"
     d="M 0,0 5,-5 -12.5,0 5,5 Z"
     id="path1143" />
</marker>
<inkscape:path-effect
   effect="skeletal"
   id="path-effect1094"
   is_visible="true"
   lpeversion="1"
   pattern="m 140.00635,-78.947457 c -0.69327,-2.671512 -3.42411,-4.277045 -6.09562,-3.583779 -2.67152,0.693265 -4.27704,3.4241 -3.58378,6.095614 0.69326,2.671513 3.42411,4.277046 6.09561,3.583781 2.67152,-0.693269 4.27705,-3.424103 3.58379,-6.095616 z"
   copytype="single_stretched"
   prop_scale="1"
   scale_y_rel="false"
   spacing="0"
   normal_offset="0"
   tang_offset="0"
   prop_units="false"
   vertical_pattern="false"
   hide_knot="false"
   fuse_tolerance="0" />
<inkscape:path-effect
   effect="bspline"
   id="path-effect1092"
   is_visible="true"
   lpeversion="1"
   weight="33"
   steps="2"
   helper_size="0"
   apply_no_weight="true"
   apply_with_weight="true"
   only_selected="false" />
<inkscape:path-effect
   effect="skeletal"
   id="path-effect1073"
   is_visible="true"
   lpeversion="1"
   pattern="m 124.98481,11.621304 c -0.76353,-2.652281 -3.53578,-4.1851949 -6.18806,-3.4216583 -2.65229,0.7635241 -4.18519,3.5357793 -3.42167,6.1880603 0.76352,2.652291 3.53578,4.185195 6.18806,3.421671 2.6523,-0.763526 4.1852,-3.535782 3.42167,-6.188073 z"
   copytype="single_stretched"
   prop_scale="1"
   scale_y_rel="false"
   spacing="0"
   normal_offset="0"
   tang_offset="0"
   prop_units="false"
   vertical_pattern="false"
   hide_knot="false"
   fuse_tolerance="0" />
<inkscape:path-effect
   effect="bspline"
   id="path-effect1071"
   is_visible="true"
   lpeversion="1"
   weight="33"
   steps="2"
   helper_size="0"
   apply_no_weight="true"
   apply_with_weight="true"
   only_selected="false" />
<inkscape:path-effect
   effect="skeletal"
   id="path-effect196"
   is_visible="true"
   lpeversion="1"
   pattern="m 160.91218,-53.498614 c 0,-2.76 -2.24,-5 -5,-5 -2.76,0 -5,2.24 -5,5 0,2.76 2.24,5 5,5 2.76,0 5,-2.24 5,-5 z"
   copytype="single_stretched"
   prop_scale="0.8636728"
   scale_y_rel="false"
   spacing="0"
   normal_offset="0"
   tang_offset="0"
   prop_units="false"
   vertical_pattern="false"
   hide_knot="false"
   fuse_tolerance="0" />
<inkscape:path-effect
   effect="bspline"
   id="path-effect194"
   is_visible="true"
   lpeversion="1"
   weight="33.333333"
   steps="2"
   helper_size="0"
   apply_no_weight="true"
   apply_with_weight="true"
   only_selected="false" />
<inkscape:path-effect
   fuse_tolerance="0"
   hide_knot="false"
   vertical_pattern="false"
   prop_units="false"
   tang_offset="0"
   normal_offset="0"
   spacing="0"
   scale_y_rel="false"
   prop_scale="1"
   copytype="single_stretched"
   pattern="m -78.497115,-32.806222 c -0.441613,-2.724441 1.411119,-5.29399 4.13556,-5.735602 2.72444,-0.441613 5.29399,1.411119 5.735602,4.135561 0.441611,2.724442 -1.41112,5.293992 -4.135561,5.735603 -2.724442,0.44161 -5.293991,-1.411121 -5.735601,-4.135562 z"
   lpeversion="1"
   is_visible="true"
   id="path-effect190"
   effect="skeletal" />
<inkscape:path-effect
   only_selected="false"
   apply_with_weight="true"
   apply_no_weight="true"
   helper_size="0"
   steps="2"
   weight="33"
   lpeversion="1"
   is_visible="true"
   id="path-effect188"
   effect="bspline" />
<inkscape:path-effect
   effect="skeletal"
   id="path-effect163"
   is_visible="true"
   lpeversion="1"
   pattern="m 59.349861,42.298804 c 0,-2.76 2.24,-5 5,-5 2.76,0 5,2.24 5,5 0,2.76 -2.24,5 -5,5 -2.76,0 -5,-2.24 -5,-5 z"
   copytype="single_stretched"
   prop_scale="1"
   scale_y_rel="false"
   spacing="0"
   normal_offset="0"
   tang_offset="0"
   prop_units="false"
   vertical_pattern="false"
   hide_knot="false"
   fuse_tolerance="0" />
<inkscape:path-effect
   effect="bspline"
   id="path-effect161"
   is_visible="true"
   lpeversion="1"
   weight="33.333333"
   steps="2"
   helper_size="0"
   apply_no_weight="true"
   apply_with_weight="true"
   only_selected="false" />
<inkscape:path-effect
   fuse_tolerance="0"
   hide_knot="false"
   vertical_pattern="false"
   prop_units="false"
   tang_offset="0"
   normal_offset="0"
   spacing="0"
   scale_y_rel="false"
   prop_scale="1"
   copytype="single_stretched"
   pattern="M 0,5 C 0,2.24 2.24,0 5,0 7.76,0 10,2.24 10,5 10,7.76 7.76,10 5,10 2.24,10 0,7.76 0,5 Z"
   lpeversion="1"
   is_visible="true"
   id="path-effect130"
   effect="skeletal" />
<inkscape:path-effect
   only_selected="false"
   apply_with_weight="true"
   apply_no_weight="true"
   helper_size="0"
   steps="2"
   weight="33.333333"
   lpeversion="1"
   is_visible="true"
   id="path-effect128"
   effect="bspline" />
<inkscape:path-effect
   fuse_tolerance="0"
   hide_knot="false"
   vertical_pattern="false"
   prop_units="false"
   tang_offset="0"
   normal_offset="0"
   spacing="0"
   scale_y_rel="false"
   prop_scale="1"
   copytype="single_stretched"
   pattern="M 0,5 C 0,2.24 2.24,0 5,0 7.76,0 10,2.24 10,5 10,7.76 7.76,10 5,10 2.24,10 0,7.76 0,5 Z"
   lpeversion="1"
   is_visible="true"
   id="path-effect101"
   effect="skeletal" />
<inkscape:path-effect
   only_selected="false"
   apply_with_weight="true"
   apply_no_weight="true"
   helper_size="0"
   steps="2"
   weight="33.333333"
   lpeversion="1"
   is_visible="true"
   id="path-effect99"
   effect="bspline" />
<inkscape:path-effect
   fuse_tolerance="0"
   hide_knot="false"
   vertical_pattern="false"
   prop_units="false"
   tang_offset="0"
   normal_offset="0"
   spacing="0"
   scale_y_rel="false"
   prop_scale="1"
   copytype="single_stretched"
   pattern="M 0,5 C 0,2.24 2.24,0 5,0 7.76,0 10,2.24 10,5 10,7.76 7.76,10 5,10 2.24,10 0,7.76 0,5 Z"
   lpeversion="1"
   is_visible="true"
   id="path-effect95"
   effect="skeletal" />
<inkscape:path-effect
   fuse_tolerance="0"
   hide_knot="false"
   vertical_pattern="false"
   prop_units="false"
   tang_offset="0"
   normal_offset="0"
   spacing="0"
   scale_y_rel="false"
   prop_scale="1"
   copytype="single_stretched"
   pattern="M 0,5 C 0,2.24 2.24,0 5,0 7.76,0 10,2.24 10,5 10,7.76 7.76,10 5,10 2.24,10 0,7.76 0,5 Z"
   lpeversion="1"
   is_visible="true"
   id="path-effect75"
   effect="skeletal" />
<inkscape:path-effect
   fuse_tolerance="0"
   hide_knot="false"
   vertical_pattern="false"
   prop_units="false"
   tang_offset="0"
   normal_offset="0"
   spacing="0"
   scale_y_rel="false"
   prop_scale="1"
   copytype="single_stretched"
   pattern="M 0,5 C 0,2.24 2.24,0 5,0 7.76,0 10,2.24 10,5 10,7.76 7.76,10 5,10 2.24,10 0,7.76 0,5 Z"
   lpeversion="1"
   is_visible="true"
   id="path-effect69"
   effect="skeletal" />
<inkscape:path-effect
   fuse_tolerance="0"
   hide_knot="false"
   vertical_pattern="false"
   prop_units="false"
   tang_offset="0"
   normal_offset="0"
   spacing="0"
   scale_y_rel="false"
   prop_scale="1"
   copytype="single_stretched"
   pattern="M 0,5 C 0,2.24 2.24,0 5,0 7.76,0 10,2.24 10,5 10,7.76 7.76,10 5,10 2.24,10 0,7.76 0,5 Z"
   lpeversion="1"
   is_visible="true"
   id="path-effect63"
   effect="skeletal" />
<inkscape:path-effect
   fuse_tolerance="0"
   hide_knot="false"
   vertical_pattern="false"
   prop_units="false"
   tang_offset="0"
   normal_offset="0"
   spacing="0"
   scale_y_rel="false"
   prop_scale="1"
   copytype="single_stretched"
   pattern="M 0,5 C 0,2.24 2.24,0 5,0 7.76,0 10,2.24 10,5 10,7.76 7.76,10 5,10 2.24,10 0,7.76 0,5 Z"
   lpeversion="1"
   is_visible="true"
   id="path-effect57"
   effect="skeletal" />
<inkscape:path-effect
   fuse_tolerance="0"
   hide_knot="false"
   vertical_pattern="false"
   prop_units="false"
   tang_offset="0"
   normal_offset="0"
   spacing="0"
   scale_y_rel="false"
   prop_scale="1"
   copytype="single_stretched"
   pattern="M 0,5 C 0,2.24 2.24,0 5,0 7.76,0 10,2.24 10,5 10,7.76 7.76,10 5,10 2.24,10 0,7.76 0,5 Z"
   lpeversion="1"
   is_visible="true"
   id="path-effect49"
   effect="skeletal" />
<inkscape:path-effect
   fuse_tolerance="0"
   hide_knot="false"
   vertical_pattern="false"
   prop_units="false"
   tang_offset="0"
   normal_offset="0"
   spacing="0"
   scale_y_rel="false"
   prop_scale="1"
   copytype="single_stretched"
   pattern="M 0,5 C 0,2.24 2.24,0 5,0 7.76,0 10,2.24 10,5 10,7.76 7.76,10 5,10 2.24,10 0,7.76 0,5 Z"
   lpeversion="1"
   is_visible="true"
   id="path-effect1027"
   effect="skeletal" />
<inkscape:path-effect
   only_selected="false"
   apply_with_weight="true"
   apply_no_weight="true"
   helper_size="0"
   steps="2"
   weight="33.333333"
   lpeversion="1"
   is_visible="true"
   id="path-effect1025"
   effect="bspline" />
<inkscape:path-effect
   fuse_tolerance="0"
   hide_knot="false"
   vertical_pattern="false"
   prop_units="false"
   tang_offset="0"
   normal_offset="0"
   spacing="0"
   scale_y_rel="false"
   prop_scale="1"
   copytype="single_stretched"
   pattern="M 0,5 C 0,2.24 2.24,0 5,0 7.76,0 10,2.24 10,5 10,7.76 7.76,10 5,10 2.24,10 0,7.76 0,5 Z"
   lpeversion="1"
   is_visible="true"
   id="path-effect1021"
   effect="skeletal" />
<inkscape:path-effect
   only_selected="false"
   apply_with_weight="true"
   apply_no_weight="true"
   helper_size="0"
   steps="2"
   weight="33.333333"
   lpeversion="1"
   is_visible="true"
   id="path-effect959"
   effect="bspline" />
<inkscape:path-effect
   fuse_tolerance="0"
   hide_knot="false"
   vertical_pattern="false"
   prop_units="false"
   tang_offset="0"
   normal_offset="0"
   spacing="0"
   scale_y_rel="false"
   prop_scale="1"
   copytype="single_stretched"
   pattern="M 0,5 C 0,2.24 2.24,0 5,0 7.76,0 10,2.24 10,5 10,7.76 7.76,10 5,10 2.24,10 0,7.76 0,5 Z"
   lpeversion="1"
   is_visible="true"
   id="path-effect961"
   effect="skeletal" />
<linearGradient
   gradientUnits="userSpaceOnUse"
   y2="211.98891"
   x2="374.35464"
   y1="211.98891"
   x1="224.51309"
   id="linearGradient1064"
   xlink:href="#linearGradient1062"
   inkscape:collect="always" />

	
	
	
</defs>
  <sodipodi:namedview
     fit-margin-bottom="0"
     fit-margin-right="0"
     fit-margin-left="0"
     fit-margin-top="0"
     lock-margins="true"
     units="px"
     inkscape:snap-bbox-midpoints="true"
     inkscape:snap-bbox-edge-midpoints="true"
     inkscape:snap-bbox="true"
     inkscape:snap-nodes="false"
     inkscape:object-nodes="false"
     inkscape:snap-others="false"
     showborder="true"
     inkscape:window-maximized="1"
     inkscape:window-y="-8"
     inkscape:window-x="1912"
     inkscape:window-height="1027"
     inkscape:window-width="1920"
     showguides="false"
     showgrid="false"
     inkscape:document-rotation="0"
     inkscape:current-layer="layer2"
     inkscape:document-units="px"
     inkscape:cy="190.4287"
     inkscape:cx="644.34641"
     inkscape:zoom="0.32"
     inkscape:pageshadow="2"
     inkscape:pageopacity="0.0"
     borderopacity="1.0"
     bordercolor="#666666"
     pagecolor="#ffffff"
     id="base" />
  <metadata
     id="metadata5">
    <rdf:RDF>
      <cc:Work
         rdf:about="">
        <dc:format>image/svg+xml</dc:format>
        <dc:type
           rdf:resource="http://purl.org/dc/dcmitype/StillImage" />
        <dc:title></dc:title>
      </cc:Work>
    </rdf:RDF>
  </metadata>
  <g
     transform="translate(242.75727,-126.14165)"
     style="display:inline"
     inkscape:label="heart"
     id="layer2"
     inkscape:groupmode="layer">
    <text
       style="font-style:normal;font-weight:normal;font-size:10.5833px;line-height:1.25;font-family:sans-serif;white-space:pre;shape-inside:url(#rect1014);fill:#000000;fill-opacity:1;stroke:none;"
       id="text1012"
       xml:space="preserve" />
    <text
       style="font-style:normal;font-weight:normal;font-size:10.5833px;line-height:1.25;font-family:sans-serif;white-space:pre;shape-inside:url(#rect1170);fill:#000000;fill-opacity:1;stroke:none;"
       id="text1168"
       xml:space="preserve" />
    <path
       transform="scale(0.26458333)"
       d="M -917.50781,476.75586 V 1676.7559 h 1200 V 476.75586 Z m 440.65429,158.83008 c 2.90567,0 5.80451,0.14578 8.69532,0.42773 2.89084,0.28188 5.77366,0.6998 8.64648,1.24024 2.78952,0.52478 5.56897,1.16857 8.33789,1.92187 2.76896,0.7533 5.52814,1.6152 8.27344,2.58008 2.7453,0.96484 5.47677,2.032 8.19531,3.19141 2.71854,1.1594 5.42265,2.41299 8.11133,3.75 5.3774,2.67397 10.69216,5.68439 15.93164,8.96679 5.23948,3.28241 10.40366,6.83492 15.48047,10.58985 5.07685,3.75492 10.06753,7.71312 14.95703,11.80468 4.88946,4.09157 9.67808,8.31704 14.35547,12.60938 4.67739,4.29233 9.24303,8.65062 13.68359,13.00781 4.44061,4.35723 8.75653,8.71379 12.93555,13 1.39064,1.42632 2.80043,2.86124 4.16016,4.26953 -4.09697,1.38928 -8.16615,3.07875 -12.19532,5.01953 -4.02912,1.94083 -8.01813,4.13337 -11.95507,6.52539 -3.93695,2.39207 -7.8222,4.98357 -11.64258,7.72657 -3.82039,2.74295 -7.57642,5.63721 -11.25586,8.63086 -3.67949,2.99361 -7.28267,6.08647 -10.79688,9.23046 -3.51416,3.14393 -6.93916,6.3392 -10.26367,9.53321 -0.83115,0.7985 -1.6563,1.59686 -2.47461,2.39453 -0.81834,0.79771 -1.63039,1.5953 -2.43555,2.39062 -0.80511,0.79533 -1.60298,1.58947 -2.39453,2.38086 -0.79158,0.7914 -1.57591,1.57932 -2.35351,2.36524 -0.77764,0.78591 -1.54919,1.56881 -2.3125,2.34765 -0.76332,0.77885 -1.51901,1.55399 -2.26758,2.32422 -0.74861,0.77023 -1.48916,1.5349 -2.22266,2.29493 -0.73353,0.76002 -1.4597,1.51536 -2.17773,2.26367 -0.50461,-0.52585 -1.01203,-1.05416 -1.52344,-1.58594 -0.51141,-0.53182 -1.02682,-1.06629 -1.54492,-1.60352 -0.5181,-0.53722 -1.03974,-1.07704 -1.56445,-1.61914 -0.52471,-0.54206 -1.05277,-1.08644 -1.58399,-1.63281 -0.53117,-0.54637 -1.06591,-1.09634 -1.60351,-1.64648 -0.5376,-0.55015 -1.07722,-1.10094 -1.6211,-1.6543 -0.54391,-0.55336 -1.09055,-1.10806 -1.64062,-1.66406 -0.55004,-0.55605 -1.104,-1.11372 -1.66016,-1.67188 -4.44907,-4.46509 -9.09094,-8.98917 -13.90039,-13.43359 -3.06637,-2.83366 -6.20074,-5.63474 -9.39648,-8.36719 -3.19574,-2.73241 -6.4519,-5.39615 -9.76367,-7.95508 -3.31174,-2.55893 -6.67937,-5.01302 -10.09376,-7.32617 -3.41442,-2.31315 -6.87716,-4.48537 -10.38085,-6.48047 -3.50374,-1.99506 -7.04729,-3.81326 -10.62696,-5.41797 -3.57966,-1.60475 -7.19563,-2.99657 -10.83789,-4.13867 -3.64222,-1.14213 -7.31244,-2.03344 -11.0039,-2.64062 -3.69151,-0.6073 -7.40353,-0.92969 -11.13086,-0.92969 -3.81691,0 -7.59985,0.14011 -11.34571,0.41601 -3.74585,0.27599 -7.4539,0.68879 -11.11914,1.23047 -3.66523,0.54172 -7.28822,1.21267 -10.86328,2.00977 -3.57505,0.7971 -7.10281,1.71951 -10.57812,2.76172 -3.66097,1.09787 -7.26408,2.32984 -10.80274,3.68945 -3.53866,1.35961 -7.0131,2.84714 -10.41797,4.45703 -3.40486,1.60993 -6.74042,3.34261 -10,5.19141 -3.25961,1.84879 -6.44208,3.81438 -9.54492,5.89062 -3.10288,2.07629 -6.12589,4.26237 -9.06055,6.55469 -2.93465,2.29236 -5.78213,4.69048 -8.53711,7.1875 -2.75497,2.49698 -5.41666,5.09297 -7.98046,7.7832 -2.56381,2.69027 -5.02944,5.47361 -7.39063,8.34571 -2.36118,2.87206 -4.61855,5.83251 -6.76562,8.875 -2.14712,3.04252 -4.18396,6.16761 -6.10547,9.36914 -1.92151,3.20152 -3.72765,6.47901 -5.41211,9.82812 -1.6845,3.34912 -3.24768,6.77053 -4.6836,10.25586 -1.43595,3.48533 -2.74396,7.03444 -3.91992,10.64453 -1.17596,3.61013 -2.21853,7.28043 -3.12304,11.00391 -0.90448,3.72344 -1.67139,7.50076 -2.29297,11.32617 -0.15799,0.97327 -0.22382,1.97565 -0.36328,2.95508 -0.0714,-2.2165 -0.18559,-4.42669 -0.18555,-6.65234 5.3e-4,-78.52415 43.74909,-146.82495 108.19336,-181.85157 5.43118,-2.89871 10.9711,-5.62274 16.67773,-8.03711 3.09215,-1.30824 6.22181,-2.54326 9.38867,-3.70312 3.16687,-1.15986 6.37019,-2.24479 9.60743,-3.25195 3.23724,-1.00717 6.50919,-1.93698 9.8125,-2.78711 3.30327,-0.85013 6.63891,-1.62181 10.0039,-2.31055 3.36499,-0.68878 6.75928,-1.29531 10.18164,-1.81836 3.4224,-0.52309 6.87223,-0.96145 10.34766,-1.31445 3.47543,-0.35305 6.97582,-0.62006 10.5,-0.79883 3.52414,-0.17877 7.07207,-0.26957 10.64062,-0.26953 z m 301.07422,0 c 3.56856,0 7.11645,0.0908 10.64063,0.26953 3.52414,0.17869 7.02457,0.44582 10.5,0.79883 3.47546,0.35304 6.92529,0.79136 10.34765,1.31445 3.4224,0.52305 6.81662,1.12958 10.18164,1.81836 3.36499,0.68874 6.70064,1.46042 10.00391,2.31055 3.30331,0.85013 6.57526,1.77994 9.8125,2.78711 3.23724,1.00716 6.44056,2.09209 9.60742,3.25195 3.16687,1.15986 6.296492,2.39488 9.388675,3.70312 6.18429,2.61646 12.214742,5.52504 18.074219,8.70899 5.859515,3.18395 11.548784,6.64259 17.048828,10.35937 5.500044,3.71679 10.812016,7.69129 15.917969,11.90625 5.105915,4.21501 10.00639,8.67109 14.683593,13.34961 4.677204,4.67849 9.129955,9.58011 13.34375,14.6875 4.213833,5.10739 8.1885303,10.42025 11.9042972,15.92188 3.71576686,5.50159 7.1723506,11.19155 10.3554688,17.05273 3.1830803,5.86118 6.091258,11.89398 8.707031,18.08008 1.307906,3.09301 2.543566,6.22285 3.703125,9.39063 1.159559,3.16777 2.243096,6.37318 3.25,9.61132 1.006904,3.23823 1.937169,6.5102 2.78711,9.81446 0.849902,3.30425 1.620001,6.63988 2.308593,10.00586 0.688592,3.36601 1.295424,6.76212 1.81836,10.18554 0.522935,3.42339 0.961445,6.87508 1.314453,10.35156 0.35297,3.47645 0.620056,6.97871 0.798828,10.50391 0.178772,3.52524 0.269531,7.07297 0.269531,10.64258 3.8e-5,4.89846 -0.193928,9.77342 -0.537109,14.62305 -0.327307,-3.91582 -0.804087,-7.78998 -1.425781,-11.61524 -0.621657,-3.82526 -1.388377,-7.60089 -2.292969,-11.32422 -0.904554,-3.72329 -1.947009,-7.39396 -3.123047,-11.0039 -1.175962,-3.60994 -2.485881,-7.15939 -3.921875,-10.64453 -1.435956,-3.48518 -2.999134,-6.90495 -4.683594,-10.25391 -1.68446,-3.34896 -3.490635,-6.62671 -5.4121091,-9.82813 -1.921474,-3.20133 -3.9584324,-6.32677 -6.1054688,-9.36914 -2.1469984,-3.04236 -4.40256319,-6.00305 -6.7636719,-8.875 -2.3611085,-2.87195 -4.8268958,-5.65558 -7.3906252,-8.3457 -2.563729,-2.69015 -5.225571,-5.28633 -7.980469,-7.7832 -2.754859,-2.49691 -5.60257,-4.89526 -8.537109,-7.1875 -2.934538,-2.29225 -5.955828,-4.47852 -9.058594,-6.55469 -3.102726,-2.07621 -6.28741,-4.04194 -9.546875,-5.89062 -3.259464,-1.84872 -6.593297,-3.57961 -9.998046,-5.18946 -3.404712,-1.60985 -6.879424,-3.0975 -10.417969,-4.45703 -3.538545,-1.35957 -7.141884,-2.59161 -10.802735,-3.68945 -3.475313,-1.04221 -7.00307,-1.96462 -10.578125,-2.76172 -3.575055,-0.7971 -7.198046,-1.46805 -10.863281,-2.00977 -3.665238,-0.54168 -7.373288,-0.95456 -11.119138,-1.23047 -3.74585,-0.27617 -7.52884,-0.41601 -11.34571,-0.41601 -3.69758,0 -7.39118,0.31618 -11.07421,0.91406 -3.683,0.59785 -7.3545,1.47839 -11.00586,2.60352 -3.65137,1.12516 -7.28408,2.49624 -10.88672,4.07812 -3.60265,1.58185 -7.17605,3.3738 -10.71289,5.3418 -3.53685,1.968 -7.03628,4.11102 -10.49024,6.39453 -3.45396,2.28355 -6.8628,4.70779 -10.21679,7.23633 -3.35403,2.5285 -6.65369,5.16234 -9.89063,7.86523 -3.23694,2.70297 -6.41083,5.4745 -9.51367,8.28125 -5.00572,4.52807 -9.82659,9.14509 -14.42578,13.70313 -4.5992,4.55799 -8.9767,9.05705 -13.09571,13.34961 -5.82258,-6.06796 -12.10146,-12.55048 -18.75781,-19.02735 -3.32817,-3.23841 -6.75022,-6.47448 -10.25781,-9.6582 -3.50755,-3.18372 -7.09993,-6.31347 -10.76758,-9.33789 -3.66761,-3.02442 -7.41038,-5.94459 -11.21875,-8.70508 -3.80836,-2.76049 -7.6816,-5.36196 -11.61133,-7.75391 -3.92969,-2.39194 -7.91553,-4.57339 -11.94726,-6.49218 -3.83789,-1.8265 -7.72355,-3.37443 -11.63672,-4.67969 1.2805,-1.3206 2.53451,-2.61983 3.8457,-3.95703 21.9515,-22.3869 47.99826,-46.68305 76.05078,-63.38281 3.93982,-2.30446 7.88091,-4.61618 11.88672,-6.58399 1.08597,-0.54591 2.18703,-0.99072 3.27735,-1.50976 1.70479,-0.79151 3.40478,-1.61248 5.11914,-2.33399 2.7589,-1.16111 5.5301,-2.22926 8.31054,-3.19531 2.78045,-0.96609 5.57124,-1.83008 8.36914,-2.58398 2.79791,-0.75395 5.60278,-1.39713 8.41407,-1.92188 2.8871,-0.53889 5.7796,-0.95513 8.67578,-1.23633 2.89614,-0.28146 5.79587,-0.42773 8.69726,-0.42773 z m -398.64453,90.88281 c -2.08342,4.62973 -3.93411,9.38608 -5.54101,14.25195 -1.60695,4.86596 -2.96945,9.84096 -4.07032,14.91407 -1.10086,5.07314 -1.94258,10.2447 -2.50781,15.49609 -0.56542,5.25143 -0.85348,10.58362 -0.85351,15.98437 -4e-5,3.66649 0.13519,7.31723 0.40429,10.94532 0.26926,3.62804 0.67281,7.23386 1.20508,10.81054 0.53227,3.57672 1.19333,7.12433 1.98242,10.63672 0.78909,3.51239 1.70443,6.99065 2.74414,10.42578 1.03971,3.43518 2.20415,6.82688 3.48828,10.17188 1.2841,3.34503 2.68862,6.64088 4.21094,9.88281 1.52228,3.24189 3.16175,6.43082 4.91602,9.55664 1.75427,3.12586 3.62353,6.19064 5.60351,9.1875 2.05626,3.11222 4.23269,6.15042 6.52539,9.10938 2.2927,2.95895 4.70212,5.83592 7.22461,8.62695 2.5225,2.79107 5.15866,5.49691 7.9043,8.10547 2.7456,2.60848 5.60041,5.12194 8.5625,7.5332 l 203,178.99418 -91.24023,80.4492 -133.85743,-118.6719 -49.94531,-44.28124 c -45.49372,-37.23803 -72.48584,-92.28309 -74.36914,-150.8418 0.13682,-0.96295 0.20208,-1.94931 0.35742,-2.90625 0.61111,-3.7612 1.36459,-7.4738 2.25391,-11.13477 0.88932,-3.66096 1.91412,-7.2708 3.07031,-10.82031 1.15623,-3.54947 2.44167,-7.03806 3.85352,-10.46484 1.41184,-3.42682 2.94931,-6.79107 4.60547,-10.08399 1.65618,-3.29287 3.43299,-6.51628 5.32226,-9.66406 1.88924,-3.14778 3.89094,-6.21948 6.00195,-9.21094 2.11106,-2.99142 4.33081,-5.90265 6.65235,-8.72656 2.32154,-2.82384 4.74483,-5.56001 7.26562,-8.20508 2.52076,-2.64506 5.13895,-5.19724 7.84766,-7.65234 2.70871,-2.45507 5.50721,-4.81256 8.39258,-7.06641 2.88536,-2.25384 5.85939,-4.40387 8.91015,-6.44531 3.05076,-2.0414 6.17988,-3.97325 9.38477,-5.79102 3.20489,-1.81776 6.48435,-3.5226 9.83203,-5.10546 3.34772,-1.58287 6.76294,-3.04408 10.24219,-4.38086 3.47924,-1.33675 7.02158,-2.54948 10.62109,-3.62891 z m 493.560549,1.53711 h 0.002 c 3.598488,1.07917 7.138964,2.29059 10.617187,3.62695 3.478224,1.33641 6.893539,2.79845 10.240235,4.38086 3.346734,1.58241 6.624219,3.28437 9.828125,5.10156 3.203943,1.8172 6.334913,3.74827 9.384765,5.78907 3.049851,2.04079 6.0198,4.19019 8.904297,6.44336 2.884536,2.25316 5.682707,4.6101 8.390625,7.06445 2.707918,2.45431 5.325703,5.00807 7.845703,7.65234 2.520038,2.64424 4.942816,5.38016 7.2636722,8.20313 2.3208945,2.823 4.5379873,5.73214 6.6484376,8.72265 2.11041254,2.99052 4.1132097,6.06223 6.0019531,9.20899 1.8887055,3.14683 3.6645393,6.37022 5.3203125,9.66211 1.6557356,3.29189 3.1920506,6.65236 4.6035156,10.07812 1.411502,3.42573 2.697585,6.91448 3.853516,10.46289 1.155968,3.54841 2.181178,7.15658 3.070312,10.81641 0.889172,3.65987 1.642832,7.37275 2.253906,11.13281 0.611112,3.76007 1.080706,7.56695 1.402344,11.41602 -0.245972,3.47493 -0.580196,6.93471 -1.001953,10.37695 -0.421757,3.44224 -0.932673,6.86798 -1.527344,10.27149 -0.594708,3.4035 -1.274313,6.78585 -2.039062,10.14453 -0.764788,3.35867 -1.612928,6.69223 -2.544922,10 -0.931956,3.30773 -1.946641,6.58911 -3.042969,9.83984 -1.096327,3.25077 -2.275376,6.47247 -3.533203,9.66016 -1.257789,3.18769 -2.5952652,6.34241 -4.0117188,9.46093 -1.4164535,3.11857 -2.910176,6.20083 -4.4824218,9.24414 -1.5722079,3.04332 -3.2221003,6.04775 -4.9472656,9.00977 -1.7251653,2.96205 -3.5251781,5.88123 -5.4003907,8.75586 -1.8752126,2.87467 -3.8271841,5.70512 -5.8496091,8.48633 -2.022425,2.7812 -4.118353,5.51358 -6.285157,8.19531 -2.166765,2.68158 -4.402666,5.31071 -6.710937,7.88672 -2.308271,2.57605 -4.687862,5.09806 -7.134766,7.5625 -2.446904,2.4644 -4.962257,4.87212 -7.544921,7.21875 -2.582665,2.34659 -5.231676,4.63269 -7.947266,6.85544 l -57.261719,50.7657 -126.80664,112.4238 -91.54101,81.1582 -92.61133,-82.1074 91.2168,-80.4297 0.32031,0.2812 0.32031,-0.2812 202.94922,-178.94924 c 2.96122,-2.41059 5.81566,-4.92357 8.56055,-7.53125 2.74488,-2.60769 5.38049,-5.30945 7.90234,-8.09961 2.52185,-2.79013 4.93056,-5.66699 7.222653,-8.625 2.292133,-2.95797 4.467791,-5.99811 6.523438,-9.10938 1.979565,-2.99611 3.847748,-6.05849 5.601562,-9.18359 1.753777,-3.12507 3.394227,-6.3116 4.916016,-9.55274 1.521827,-3.24113 2.925343,-6.53665 4.208984,-9.88086 1.283679,-3.34423 2.447034,-6.73753 3.486328,-10.17187 1.039333,-3.43438 1.953438,-6.91223 2.742188,-10.42383 0.788787,-3.5116 1.452369,-7.05696 1.984375,-10.63281 0.532044,-3.57589 0.934023,-7.17943 1.203125,-10.80664 0.269027,-3.62721 0.404335,-7.27775 0.404297,-10.94336 -3.8e-5,-5.39936 -0.288628,-10.73044 -0.853516,-15.98047 -0.564888,-5.25007 -1.405563,-10.4204 -2.505859,-15.49219 -1.100334,-5.07182 -2.46206,-10.04552 -4.06836,-14.91015 -1.606337,-4.86467 -3.458118,-9.61949 -5.541015,-14.24805 z m 267.853511,67.73437 c 7.20848,0.3376 13.66951,5.36742 16.59375,16.26758 2.34365,8.73657 2.56424,17.69032 3.67969,26.57031 7.00948,55.77714 6.44914,111.84398 8.3086,167.88478 2.77254,83.5584 -33.22862,206.278 -43.70899,228.5508 -39.97126,84.9484 -111.871731,90.9587 -166.8554675,154.1133 -50.8869525,58.448 -43.1542525,118.6296 -74.2539065,124.7168 -49.648026,9.7184 -90.776966,0.6885 -122.171876,-42.8438 -14.43598,-20.0178 -14.58686,-23.5768 -1.12891,-43.9531 12.75153,-19.3056 24.78252,-38.8935 29.42579,-62.291 7.52424,-37.914 2.03375,-92.6409 58.76367,-117.0352 26.869189,-11.5548 54.498454,-21.6634 78.855467,-39.2402 68.177576,-49.1963 84.042461,-95.6109 115.222656,-123.6211 64.380287,-57.8342 96.285327,9.5238 6.335938,99.8886 -5.447925,5.476 -10.119411,11.7656 -15.146485,17.6817 24.414994,-7.4033 110.339934,-95.4728 77.337894,-143.7285 -7.30201,-10.6772 -8.74174,-21.7888 -7.29883,-33.3496 8.34981,-66.88573 -7.21712,-111.7918 6.69336,-197.67582 3.24423,-20.03074 17.33352,-32.49821 29.34765,-31.93555 z m -1013.875,0.002 c 12.01411,-0.56252 26.10343,11.90516 29.34766,31.93554 13.91048,85.88402 -1.65787,130.78874 6.69141,197.67383 1.44291,11.5609 0.004,22.6719 -7.29688,33.3496 -33.00151,48.2563 52.92347,136.3258 77.33789,143.7285 -5.02703,-5.9167 -9.69803,-12.2068 -15.14648,-17.6817 -89.94939,-90.3648 -58.04491,-157.7208 6.33594,-99.8867 31.18125,28.0102 47.04504,74.4243 115.22265,123.6211 24.35755,17.5758 51.98575,27.6854 78.85547,39.2403 56.72942,24.3948 51.23996,79.1211 58.76367,117.0351 4.64327,23.3976 16.67426,42.984 29.42578,62.2891 13.45796,20.3752 13.30602,23.9342 -1.1289,43.9531 -31.39487,43.5323 -72.5219,52.5642 -122.16992,42.8457 -31.10019,-6.0877 -23.36891,-66.2687 -74.25586,-124.7168 -54.98374,-63.1545 -126.88229,-69.1648 -166.85352,-154.1133 -10.48036,-22.2728 -46.48348,-144.9929 -43.71094,-228.5508 1.85998,-56.04071 1.29969,-112.10755 8.3086,-167.88468 1.11602,-8.88 1.33604,-17.8357 3.67968,-26.57227 2.92445,-10.90036 9.38529,-15.92811 16.59375,-16.26562 z m 58.20899,58.21875 c 3.61837,0.14037 7.54252,1.62567 11.33203,4.24609 12.12631,8.38526 22.98847,28.46556 18.40625,54.25195 -0.008,0.0544 -0.008,0.0498 -0.0234,0.11329 -0.0144,0.0635 -0.036,0.15595 -0.0625,0.27539 -0.0537,0.23875 -0.13075,0.58703 -0.23242,1.03906 -0.2036,0.90414 -0.50209,2.22121 -0.87891,3.89062 -0.75356,3.3388 -1.82504,8.09067 -3.11132,13.78321 -2.57265,11.38511 -5.9991,26.5332 -9.42188,41.67187 -6.84559,30.27724 -13.68359,60.51364 -13.68359,60.51364 v 0 c -1.13821,4.8595 -4.06057,8.2954 -9.01367,9.1563 -1.39355,0.2424 -2.58473,-0.068 -3.54688,-0.8008 -0.96215,-0.733 -1.69737,-1.8683 -2.26562,-3.2695 -1.13655,-2.8025 -1.61615,-6.6859 -1.77149,-10.711 -0.15538,-4.025 0.0199,-8.1902 0.22852,-11.5273 0.10393,-1.6686 0.21763,-3.1297 0.30078,-4.2617 0.0828,-1.132 0.13438,-1.9504 0.12304,-2.2637 -1.5516,-45.21708 -1.33034,-90.43508 -0.90039,-135.65229 0.10016,-10.53638 3.48906,-16.73878 8.43555,-19.21289 1.85492,-0.92772 3.9149,-1.32843 6.08594,-1.24414 z m -1.06055,0.27539 c -7.32586,0.26585 -13.06072,6.43458 -13.1914,20.18555 -0.43,45.21637 -0.65287,90.42894 0.89843,135.63858 0.0977,2.853 -4.04642,34.4274 6.61914,32.5723 4.85583,-0.844 7.67606,-4.1639 8.79688,-8.9492 0,0 27.35315,-120.94389 27.41211,-121.27536 6.13336,-34.51511 -15.53458,-58.71624 -30.53516,-58.17187 z m 899.57617,0 c 7.32587,0.2658 13.06232,6.43458 13.19336,20.18555 0.43053,45.21637 0.65149,90.42894 -0.90039,135.63858 -0.0975,2.853 4.04834,34.4274 -6.61719,32.5723 -4.85529,-0.8445 -7.67496,-4.1645 -8.79687,-8.9492 0,0 -27.353602,-120.94385 -27.412109,-121.27536 -6.133366,-34.51476 15.532619,-58.71612 30.533199,-58.17187 z m -898.52343,0.27929 h 0.002 c 3.49421,0.13834 7.31606,1.57266 11.04102,4.14844 11.91983,8.24251 22.72225,28.11037 18.17578,53.69532 0.008,-0.0442 -0.006,0.026 -0.0215,0.0898 -0.0151,0.0627 -0.0337,0.15438 -0.0606,0.27344 -0.0533,0.23848 -0.13232,0.58902 -0.23437,1.04101 -0.20372,0.90391 -0.50017,2.21929 -0.87695,3.88867 -0.75357,3.33873 -1.82696,8.09071 -3.11328,13.78321 -2.57262,11.38503 -5.99711,26.53324 -9.41993,41.67187 -6.84559,30.27728 -13.68359,60.51368 -13.68359,60.51368 -1.10385,4.7098 -3.82429,7.9133 -8.58203,8.7402 -1.27283,0.2215 -2.28372,-0.05 -3.13672,-0.6992 -0.85296,-0.6498 -1.54537,-1.6984 -2.08984,-3.041 -1.08904,-2.6853 -1.57849,-6.5261 -1.73243,-10.5195 -0.15382,-3.9935 0.0237,-8.1431 0.23047,-11.4707 0.10394,-1.6639 0.2153,-3.1223 0.29883,-4.2559 0.0831,-1.1336 0.13861,-1.9244 0.125,-2.3242 -1.55108,-45.20237 -1.3284,-90.4115 -0.89844,-135.62697 0.099,-10.41751 3.41676,-16.36382 8.13282,-18.72266 1.76851,-0.8846 3.74724,-1.26843 5.84375,-1.18555 z m 52.33007,53.67579 c 3.10266,0.032 6.23449,1.64547 9,4.41601 7.37477,7.38807 12.31548,23.03059 7.8711,39.72461 -3.48469,13.09104 -24.23679,79.64143 -33.92383,98.20703 -2.5643,4.9137 -5.08215,7.6949 -8.00195,8.1992 -2.91984,0.5042 -6.08648,-1.3029 -9.89258,-5.2852 -5.9808,-6.2592 -6.67604,-13.4544 -5.0293,-21.3633 7.64614,-36.72902 15.84145,-73.32602 26.66602,-109.24015 2.49343,-8.27263 6.18088,-12.71922 10.23242,-14.14649 1.01287,-0.35686 2.04393,-0.52305 3.07812,-0.51171 z m 0.002,0.27539 c -5.03373,-0.0512 -9.95749,4.18246 -13.05664,14.46484 -10.82068,35.90113 -19.01459,72.48849 -26.66016,109.21482 -1.63665,7.8606 -0.95756,14.9213 4.95898,21.1133 7.5645,7.9146 12.3678,6.9192 17.4668,-2.8516 9.63598,-18.4677 30.42629,-85.09704 33.90039,-98.14839 6.07707,-22.82678 -5.53518,-43.68023 -16.60937,-43.79297 z m 792.808591,0 c 5.033732,-0.0512 9.957665,4.18246 13.056641,14.46484 10.820148,35.90113 19.014098,72.48849 26.660158,109.21482 1.63616,7.8606 0.95809,14.9213 -4.95899,21.1133 -7.56449,7.9146 -12.368324,6.9192 -17.466793,-2.8516 -9.637039,-18.4677 -30.42572,-85.09704 -33.900391,-98.14839 -6.076703,-22.82678 5.535165,-43.68023 16.609375,-43.79297 z m -792.806641,0.27343 c 2.93779,0.0302 5.92542,1.56313 8.62109,4.26368 7.18844,7.20143 12.12155,22.67503 7.72657,39.18359 -3.46356,13.01167 -24.29204,79.72196 -33.87696,98.09176 -2.5347,4.8571 -4.96894,7.4567 -7.61718,7.9141 -2.64821,0.4573 -5.66543,-1.1946 -9.42383,-5.127 -5.85226,-6.1246 -6.51335,-13.049 -4.88672,-20.8613 7.64496,-36.72353 15.83752,-73.30326 26.6543,-109.19139 2.46523,-8.17916 6.07098,-12.44279 9.89257,-13.78906 0.95543,-0.33638 1.93089,-0.49424 2.91016,-0.48438 z m 31.58789,58.76172 c 0.39032,-0.0202 0.78402,-0.009 1.18164,0.0352 2.38579,0.26426 4.89669,1.71923 7.45899,4.78711 4.65373,5.57227 5.49353,13.29336 3.96093,22.14648 -1.53256,8.85322 -5.43232,18.86882 -10.31445,29.12702 -9.76433,20.5164 -23.46751,42.011 -30.06445,56.9218 -0.38616,0.873 -1.28916,1.5547 -2.45117,1.9375 -1.16198,0.3829 -2.59463,0.4651 -4.08399,0.086 -2.97872,-0.7583 -6.16119,-3.3821 -7.74609,-9.084 -3.16982,-11.4039 -0.099,-35.1101 23.16211,-81.6973 0.68307,-1.36804 1.88671,-4.29927 3.50586,-7.65039 1.61915,-3.35108 3.65686,-7.13084 6.04492,-10.24219 2.38802,-3.11134 5.1276,-5.56983 8.18554,-6.21484 0.38223,-0.0807 0.76984,-0.13213 1.16016,-0.15235 z m 729.628908,0 c 0.390061,0.0202 0.777932,0.0717 1.160156,0.15235 3.057902,0.64501 5.79749,3.1035 8.185547,6.21484 2.388056,3.11135 4.427687,6.89111 6.046875,10.24219 1.619187,3.35112 2.822785,6.28235 3.505859,7.65039 23.260913,46.58714 26.32997,70.29334 23.160156,81.69724 -1.584907,5.7019 -4.765419,8.3257 -7.74414,9.084 -1.489399,0.3791 -2.923922,0.2968 -4.085938,-0.086 -1.161978,-0.3828 -2.06498,-1.0645 -2.451172,-1.9375 -6.596976,-14.9108 -20.298204,-36.4054 -30.0625,-56.9218 -4.882168,-10.2582 -8.783808,-20.2738 -10.316406,-29.12696 -1.532561,-8.85312 -0.692795,-16.57421 3.960937,-22.14648 2.562219,-3.06788 5.073271,-4.52292 7.458985,-4.78711 0.397625,-0.044 0.791579,-0.0554 1.181641,-0.0352 z m -729.615238,0.27344 c -9.43149,0.50201 -16.49829,19.76021 -18.67187,24.11328 -46.49707,93.12399 -12.09395,94.69069 -9.36328,88.51749 13.22925,-29.9016 54.79638,-85.94554 36.45898,-107.90225 -2.9559,-3.53917 -5.78301,-4.86908 -8.42383,-4.72852 z m 729.601566,0 c -2.640787,-0.14056 -5.468045,1.18935 -8.423828,4.72852 -18.337399,21.95671 23.22973,78.00065 36.458984,107.90225 2.730671,6.1732 37.133748,4.6065 -9.363281,-88.51749 -2.173583,-4.35307 -9.240495,-23.61127 -18.671875,-24.11328 z m -0.01563,0.27344 c 0.3641,0.0196 0.723271,0.0686 1.080078,0.14453 2.854601,0.60212 5.523995,2.95508 7.873047,6.01562 2.349127,3.06055 4.375531,6.81276 5.986328,10.14649 1.610797,3.33373 2.801784,6.24031 3.509765,7.6582 23.235969,46.53689 26.213189,70.17549 23.123047,81.29289 -1.545108,5.5587 -4.570587,7.9918 -7.357422,8.7012 -1.393398,0.3545 -2.732546,0.2734 -3.792968,-0.076 -1.060422,-0.3492 -1.830487,-0.9683 -2.126954,-1.6386 -6.632352,-14.9909 -20.326135,-36.4676 -30.068359,-56.9375 -4.871131,-10.235 -8.752202,-20.2177 -10.269531,-28.98241 -1.517216,-8.76477 -0.677058,-16.28333 3.83789,-21.68946 2.504846,-2.99924 4.871453,-4.36268 7.101563,-4.60351 0.371698,-0.0401 0.739415,-0.0508 1.103516,-0.0312 z m -729.570306,0.002 c 0.36436,-0.0198 0.73377,-0.0109 1.10547,0.0293 2.23014,0.24075 4.59461,1.60427 7.09961,4.60351 4.51494,5.40613 5.35518,12.92469 3.83789,21.68946 -1.51726,8.76476 -5.39645,18.74746 -10.26758,28.98246 -9.74222,20.4699 -23.438,41.9466 -30.07031,56.9375 -0.2967,0.6703 -1.0665,1.2893 -2.12696,1.6386 -1.06046,0.3493 -2.39761,0.4308 -3.79101,0.076 -2.78684,-0.7094 -5.81431,-3.1405 -7.35938,-8.6992 -3.09018,-11.1174 -0.11296,-34.758 23.12305,-81.29494 0.70798,-1.41789 1.89705,-4.32447 3.50781,-7.6582 1.61076,-3.33373 3.63923,-7.08398 5.98828,-10.14453 2.34906,-3.06055 5.01646,-5.41546 7.8711,-6.01758 0.35682,-0.0752 0.71767,-0.12278 1.08203,-0.14258 z"
       style="display:inline;fill:#000000;fill-opacity:0.85097998;fill-rule:nonzero;stroke:none;stroke-width:6.28600008;stroke-miterlimit:4;stroke-dasharray:none;stroke-opacity:1"
       id="rect1262" />
  </g>
  <g
     transform="translate(242.75727,-126.14165)"
     style="display:none"
     inkscape:label="heart 1"
     id="layer3"
     inkscape:groupmode="layer">
    <text
       id="text1039"
       y="45.974171"
       x="50.187176"
       style="font-style:normal;font-variant:normal;font-weight:normal;font-stretch:normal;font-size:14.4572px;line-height:1.25;font-family:'Segoe Script';-inkscape-font-specification:'Segoe Script';display:inline;stroke-width:0.264584"
       xml:space="preserve"><tspan
         style="font-style:normal;font-variant:normal;font-weight:bold;font-stretch:normal;font-family:'Segoe Script';-inkscape-font-specification:'Segoe Script';stroke-width:0.264584"
         y="45.974171"
         x="50.187176"
         id="tspan1037"
         sodipodi:role="line">Compassionate</tspan><tspan
         id="tspan1041"
         style="font-style:normal;font-variant:normal;font-weight:bold;font-stretch:normal;font-family:'Segoe Script';-inkscape-font-specification:'Segoe Script';stroke-width:0.264584"
         y="64.049171"
         x="50.187176"
         sodipodi:role="line">Transfer &amp; Removal</tspan></text>
  </g>
</svg>
