<?xml version="1.0" encoding="UTF-8" standalone="no"?>
<svg
   xmlns:dc="http://purl.org/dc/elements/1.1/"
   xmlns:cc="http://creativecommons.org/ns#"
   xmlns:rdf="http://www.w3.org/1999/02/22-rdf-syntax-ns#"
   xmlns:svg="http://www.w3.org/2000/svg"
   xmlns="http://www.w3.org/2000/svg"
   xmlns:xlink="http://www.w3.org/1999/xlink"
   xmlns:sodipodi="http://sodipodi.sourceforge.net/DTD/sodipodi-0.dtd"
   xmlns:inkscape="http://www.inkscape.org/namespaces/inkscape"
   width="189.22876mm"
   height="161.78752mm"
   viewBox="0 0 189.22876 161.78752"
   version="1.1"
   id="svg8"
   sodipodi:docname="heart_outline.svg"
   inkscape:version="1.0 (4035a4fb49, 2020-05-01)"
   inkscape:export-filename="C:\Users\School\Desktop\CTR\hear2.png"
   inkscape:export-xdpi="96"
   inkscape:export-ydpi="96">
  <defs
     id="defs2">
    <rect
       x="166.13474"
       y="288.11655"
       width="27.314945"
       height="15.341271"
       id="rect1170" />
    <linearGradient
       inkscape:collect="always"
       id="linearGradient1026">
      <stop
         style="stop-color:#561420;stop-opacity:1;"
         offset="0"
         id="stop1022" />
      <stop
         id="stop1038"
         offset="0.28365344"
         style="stop-color:#561420;stop-opacity:0" />
      <stop
         style="stop-color:#561420;stop-opacity:0.07843137;"
         offset="0.69369787"
         id="stop1048" />
      <stop
         style="stop-color:#561420;stop-opacity:0.89558238"
         offset="1"
         id="stop1024" />
    </linearGradient>
    <rect
       x="192.70132"
       y="206.92007"
       width="158.27701"
       height="113.00156"
       id="rect1014" />
    <inkscape:path-effect
       effect="skeletal"
       id="path-effect27786"
       is_visible="true"
       lpeversion="1"
       pattern="M 0,5 C 0,2.24 2.24,0 5,0 7.76,0 10,2.24 10,5 10,7.76 7.76,10 5,10 2.24,10 0,7.76 0,5 Z"
       copytype="single_stretched"
       prop_scale="0.379686"
       scale_y_rel="false"
       spacing="0"
       normal_offset="0"
       tang_offset="0"
       prop_units="false"
       vertical_pattern="false"
       hide_knot="false"
       fuse_tolerance="0" />
    <inkscape:path-effect
       effect="skeletal"
       id="path-effect27782"
       is_visible="true"
       lpeversion="1"
       pattern="M 0,5 C 0,2.24 2.24,0 5,0 7.76,0 10,2.24 10,5 10,7.76 7.76,10 5,10 2.24,10 0,7.76 0,5 Z"
       copytype="single_stretched"
       prop_scale="0.379686"
       scale_y_rel="false"
       spacing="0"
       normal_offset="0"
       tang_offset="0"
       prop_units="false"
       vertical_pattern="false"
       hide_knot="false"
       fuse_tolerance="0" />
    <inkscape:path-effect
       effect="skeletal"
       id="path-effect3466"
       is_visible="true"
       lpeversion="1"
       pattern="M 0,5 C 0,2.24 2.24,0 5,0 7.76,0 10,2.24 10,5 10,7.76 7.76,10 5,10 2.24,10 0,7.76 0,5 Z"
       copytype="single_stretched"
       prop_scale="0.379686"
       scale_y_rel="false"
       spacing="0"
       normal_offset="0"
       tang_offset="0"
       prop_units="false"
       vertical_pattern="false"
       hide_knot="false"
       fuse_tolerance="0" />
    <marker
       inkscape:stockid="Arrow1Lstart"
       orient="auto"
       refY="0"
       refX="0"
       id="Arrow1Lstart"
       style="overflow:visible"
       inkscape:isstock="true">
      <path
         id="path1143"
         d="M 0,0 5,-5 -12.5,0 5,5 Z"
         style="fill:#800000;fill-opacity:1;fill-rule:evenodd;stroke:#800000;stroke-width:1pt;stroke-opacity:1"
         transform="matrix(0.8,0,0,0.8,10,0)" />
    </marker>
    <inkscape:path-effect
       fuse_tolerance="0"
       hide_knot="false"
       vertical_pattern="false"
       prop_units="false"
       tang_offset="0"
       normal_offset="0"
       spacing="0"
       scale_y_rel="false"
       prop_scale="1"
       copytype="single_stretched"
       pattern="m 140.00635,-78.947457 c -0.69327,-2.671512 -3.42411,-4.277045 -6.09562,-3.583779 -2.67152,0.693265 -4.27704,3.4241 -3.58378,6.095614 0.69326,2.671513 3.42411,4.277046 6.09561,3.583781 2.67152,-0.693269 4.27705,-3.424103 3.58379,-6.095616 z"
       lpeversion="1"
       is_visible="true"
       id="path-effect1094"
       effect="skeletal" />
    <inkscape:path-effect
       only_selected="false"
       apply_with_weight="true"
       apply_no_weight="true"
       helper_size="0"
       steps="2"
       weight="33"
       lpeversion="1"
       is_visible="true"
       id="path-effect1092"
       effect="bspline" />
    <inkscape:path-effect
       fuse_tolerance="0"
       hide_knot="false"
       vertical_pattern="false"
       prop_units="false"
       tang_offset="0"
       normal_offset="0"
       spacing="0"
       scale_y_rel="false"
       prop_scale="1"
       copytype="single_stretched"
       pattern="m 124.98481,11.621304 c -0.76353,-2.652281 -3.53578,-4.1851949 -6.18806,-3.4216583 -2.65229,0.7635241 -4.18519,3.5357793 -3.42167,6.1880603 0.76352,2.652291 3.53578,4.185195 6.18806,3.421671 2.6523,-0.763526 4.1852,-3.535782 3.42167,-6.188073 z"
       lpeversion="1"
       is_visible="true"
       id="path-effect1073"
       effect="skeletal" />
    <inkscape:path-effect
       only_selected="false"
       apply_with_weight="true"
       apply_no_weight="true"
       helper_size="0"
       steps="2"
       weight="33"
       lpeversion="1"
       is_visible="true"
       id="path-effect1071"
       effect="bspline" />
    <inkscape:path-effect
       fuse_tolerance="0"
       hide_knot="false"
       vertical_pattern="false"
       prop_units="false"
       tang_offset="0"
       normal_offset="0"
       spacing="0"
       scale_y_rel="false"
       prop_scale="0.8636728"
       copytype="single_stretched"
       pattern="m 160.91218,-53.498614 c 0,-2.76 -2.24,-5 -5,-5 -2.76,0 -5,2.24 -5,5 0,2.76 2.24,5 5,5 2.76,0 5,-2.24 5,-5 z"
       lpeversion="1"
       is_visible="true"
       id="path-effect196"
       effect="skeletal" />
    <inkscape:path-effect
       only_selected="false"
       apply_with_weight="true"
       apply_no_weight="true"
       helper_size="0"
       steps="2"
       weight="33.333333"
       lpeversion="1"
       is_visible="true"
       id="path-effect194"
       effect="bspline" />
    <inkscape:path-effect
       effect="skeletal"
       id="path-effect190"
       is_visible="true"
       lpeversion="1"
       pattern="m -78.497115,-32.806222 c -0.441613,-2.724441 1.411119,-5.29399 4.13556,-5.735602 2.72444,-0.441613 5.29399,1.411119 5.735602,4.135561 0.441611,2.724442 -1.41112,5.293992 -4.135561,5.735603 -2.724442,0.44161 -5.293991,-1.411121 -5.735601,-4.135562 z"
       copytype="single_stretched"
       prop_scale="1"
       scale_y_rel="false"
       spacing="0"
       normal_offset="0"
       tang_offset="0"
       prop_units="false"
       vertical_pattern="false"
       hide_knot="false"
       fuse_tolerance="0" />
    <inkscape:path-effect
       effect="bspline"
       id="path-effect188"
       is_visible="true"
       lpeversion="1"
       weight="33"
       steps="2"
       helper_size="0"
       apply_no_weight="true"
       apply_with_weight="true"
       only_selected="false" />
    <inkscape:path-effect
       fuse_tolerance="0"
       hide_knot="false"
       vertical_pattern="false"
       prop_units="false"
       tang_offset="0"
       normal_offset="0"
       spacing="0"
       scale_y_rel="false"
       prop_scale="1"
       copytype="single_stretched"
       pattern="m 59.349861,42.298804 c 0,-2.76 2.24,-5 5,-5 2.76,0 5,2.24 5,5 0,2.76 -2.24,5 -5,5 -2.76,0 -5,-2.24 -5,-5 z"
       lpeversion="1"
       is_visible="true"
       id="path-effect163"
       effect="skeletal" />
    <inkscape:path-effect
       only_selected="false"
       apply_with_weight="true"
       apply_no_weight="true"
       helper_size="0"
       steps="2"
       weight="33.333333"
       lpeversion="1"
       is_visible="true"
       id="path-effect161"
       effect="bspline" />
    <inkscape:path-effect
       effect="skeletal"
       id="path-effect130"
       is_visible="true"
       lpeversion="1"
       pattern="M 0,5 C 0,2.24 2.24,0 5,0 7.76,0 10,2.24 10,5 10,7.76 7.76,10 5,10 2.24,10 0,7.76 0,5 Z"
       copytype="single_stretched"
       prop_scale="1"
       scale_y_rel="false"
       spacing="0"
       normal_offset="0"
       tang_offset="0"
       prop_units="false"
       vertical_pattern="false"
       hide_knot="false"
       fuse_tolerance="0" />
    <inkscape:path-effect
       effect="bspline"
       id="path-effect128"
       is_visible="true"
       lpeversion="1"
       weight="33.333333"
       steps="2"
       helper_size="0"
       apply_no_weight="true"
       apply_with_weight="true"
       only_selected="false" />
    <inkscape:path-effect
       effect="skeletal"
       id="path-effect101"
       is_visible="true"
       lpeversion="1"
       pattern="M 0,5 C 0,2.24 2.24,0 5,0 7.76,0 10,2.24 10,5 10,7.76 7.76,10 5,10 2.24,10 0,7.76 0,5 Z"
       copytype="single_stretched"
       prop_scale="1"
       scale_y_rel="false"
       spacing="0"
       normal_offset="0"
       tang_offset="0"
       prop_units="false"
       vertical_pattern="false"
       hide_knot="false"
       fuse_tolerance="0" />
    <inkscape:path-effect
       effect="bspline"
       id="path-effect99"
       is_visible="true"
       lpeversion="1"
       weight="33.333333"
       steps="2"
       helper_size="0"
       apply_no_weight="true"
       apply_with_weight="true"
       only_selected="false" />
    <inkscape:path-effect
       effect="skeletal"
       id="path-effect95"
       is_visible="true"
       lpeversion="1"
       pattern="M 0,5 C 0,2.24 2.24,0 5,0 7.76,0 10,2.24 10,5 10,7.76 7.76,10 5,10 2.24,10 0,7.76 0,5 Z"
       copytype="single_stretched"
       prop_scale="1"
       scale_y_rel="false"
       spacing="0"
       normal_offset="0"
       tang_offset="0"
       prop_units="false"
       vertical_pattern="false"
       hide_knot="false"
       fuse_tolerance="0" />
    <inkscape:path-effect
       effect="skeletal"
       id="path-effect75"
       is_visible="true"
       lpeversion="1"
       pattern="M 0,5 C 0,2.24 2.24,0 5,0 7.76,0 10,2.24 10,5 10,7.76 7.76,10 5,10 2.24,10 0,7.76 0,5 Z"
       copytype="single_stretched"
       prop_scale="1"
       scale_y_rel="false"
       spacing="0"
       normal_offset="0"
       tang_offset="0"
       prop_units="false"
       vertical_pattern="false"
       hide_knot="false"
       fuse_tolerance="0" />
    <inkscape:path-effect
       effect="skeletal"
       id="path-effect69"
       is_visible="true"
       lpeversion="1"
       pattern="M 0,5 C 0,2.24 2.24,0 5,0 7.76,0 10,2.24 10,5 10,7.76 7.76,10 5,10 2.24,10 0,7.76 0,5 Z"
       copytype="single_stretched"
       prop_scale="1"
       scale_y_rel="false"
       spacing="0"
       normal_offset="0"
       tang_offset="0"
       prop_units="false"
       vertical_pattern="false"
       hide_knot="false"
       fuse_tolerance="0" />
    <inkscape:path-effect
       effect="skeletal"
       id="path-effect63"
       is_visible="true"
       lpeversion="1"
       pattern="M 0,5 C 0,2.24 2.24,0 5,0 7.76,0 10,2.24 10,5 10,7.76 7.76,10 5,10 2.24,10 0,7.76 0,5 Z"
       copytype="single_stretched"
       prop_scale="1"
       scale_y_rel="false"
       spacing="0"
       normal_offset="0"
       tang_offset="0"
       prop_units="false"
       vertical_pattern="false"
       hide_knot="false"
       fuse_tolerance="0" />
    <inkscape:path-effect
       effect="skeletal"
       id="path-effect57"
       is_visible="true"
       lpeversion="1"
       pattern="M 0,5 C 0,2.24 2.24,0 5,0 7.76,0 10,2.24 10,5 10,7.76 7.76,10 5,10 2.24,10 0,7.76 0,5 Z"
       copytype="single_stretched"
       prop_scale="1"
       scale_y_rel="false"
       spacing="0"
       normal_offset="0"
       tang_offset="0"
       prop_units="false"
       vertical_pattern="false"
       hide_knot="false"
       fuse_tolerance="0" />
    <inkscape:path-effect
       effect="skeletal"
       id="path-effect49"
       is_visible="true"
       lpeversion="1"
       pattern="M 0,5 C 0,2.24 2.24,0 5,0 7.76,0 10,2.24 10,5 10,7.76 7.76,10 5,10 2.24,10 0,7.76 0,5 Z"
       copytype="single_stretched"
       prop_scale="1"
       scale_y_rel="false"
       spacing="0"
       normal_offset="0"
       tang_offset="0"
       prop_units="false"
       vertical_pattern="false"
       hide_knot="false"
       fuse_tolerance="0" />
    <inkscape:path-effect
       effect="skeletal"
       id="path-effect1027"
       is_visible="true"
       lpeversion="1"
       pattern="M 0,5 C 0,2.24 2.24,0 5,0 7.76,0 10,2.24 10,5 10,7.76 7.76,10 5,10 2.24,10 0,7.76 0,5 Z"
       copytype="single_stretched"
       prop_scale="1"
       scale_y_rel="false"
       spacing="0"
       normal_offset="0"
       tang_offset="0"
       prop_units="false"
       vertical_pattern="false"
       hide_knot="false"
       fuse_tolerance="0" />
    <inkscape:path-effect
       effect="bspline"
       id="path-effect1025"
       is_visible="true"
       lpeversion="1"
       weight="33.333333"
       steps="2"
       helper_size="0"
       apply_no_weight="true"
       apply_with_weight="true"
       only_selected="false" />
    <inkscape:path-effect
       effect="skeletal"
       id="path-effect1021"
       is_visible="true"
       lpeversion="1"
       pattern="M 0,5 C 0,2.24 2.24,0 5,0 7.76,0 10,2.24 10,5 10,7.76 7.76,10 5,10 2.24,10 0,7.76 0,5 Z"
       copytype="single_stretched"
       prop_scale="1"
       scale_y_rel="false"
       spacing="0"
       normal_offset="0"
       tang_offset="0"
       prop_units="false"
       vertical_pattern="false"
       hide_knot="false"
       fuse_tolerance="0" />
    <inkscape:path-effect
       effect="bspline"
       id="path-effect959"
       is_visible="true"
       lpeversion="1"
       weight="33.333333"
       steps="2"
       helper_size="0"
       apply_no_weight="true"
       apply_with_weight="true"
       only_selected="false" />
    <inkscape:path-effect
       effect="skeletal"
       id="path-effect961"
       is_visible="true"
       lpeversion="1"
       pattern="M 0,5 C 0,2.24 2.24,0 5,0 7.76,0 10,2.24 10,5 10,7.76 7.76,10 5,10 2.24,10 0,7.76 0,5 Z"
       copytype="single_stretched"
       prop_scale="1"
       scale_y_rel="false"
       spacing="0"
       normal_offset="0"
       tang_offset="0"
       prop_units="false"
       vertical_pattern="false"
       hide_knot="false"
       fuse_tolerance="0" />
    <linearGradient
       inkscape:collect="always"
       xlink:href="#linearGradient1026"
       id="linearGradient1056"
       x1="243.83989"
       y1="1023.5703"
       x2="695.73242"
       y2="1023.5703"
       gradientUnits="userSpaceOnUse"
       gradientTransform="matrix(0.26007375,0,0,0.26007375,1.6287815,4.2189941)" />
  </defs>
  <sodipodi:namedview
     fit-margin-bottom="0"
     fit-margin-right="0"
     fit-margin-left="0"
     fit-margin-top="0"
     id="base"
     pagecolor="#ffffff"
     bordercolor="#666666"
     borderopacity="1.0"
     inkscape:pageopacity="0.0"
     inkscape:pageshadow="2"
     inkscape:zoom="0.5"
     inkscape:cx="768.94263"
     inkscape:cy="189.17945"
     inkscape:document-units="px"
     inkscape:current-layer="layer2"
     inkscape:document-rotation="0"
     showgrid="false"
     showguides="false"
     inkscape:window-width="1920"
     inkscape:window-height="1027"
     inkscape:window-x="1912"
     inkscape:window-y="-8"
     inkscape:window-maximized="1"
     showborder="true"
     inkscape:snap-others="false"
     inkscape:object-nodes="false"
     inkscape:snap-nodes="false"
     inkscape:snap-bbox="true"
     inkscape:snap-bbox-edge-midpoints="true" />
  <metadata
     id="metadata5">
    <rdf:RDF>
      <cc:Work
         rdf:about="">
        <dc:format>image/svg+xml</dc:format>
        <dc:type
           rdf:resource="http://purl.org/dc/dcmitype/StillImage" />
        <dc:title />
      </cc:Work>
    </rdf:RDF>
  </metadata>
  <g
     transform="translate(5.0074462,-177.30029)"
     inkscape:groupmode="layer"
     id="layer2"
     inkscape:label="heart"
     style="display:inline">
    <path
       id="rect3482-2"
       style="display:inline;opacity:1;fill:#561420;fill-opacity:1;fill-rule:evenodd;stroke:#000000;stroke-width:2;stroke-linecap:round;stroke-linejoin:round;stroke-miterlimit:4.3;stroke-dasharray:none;stroke-opacity:0.349398;paint-order:normal"
       d="m 488.50195,671.11133 c -2.90137,0 -5.80112,0.14644 -8.69726,0.42773 -2.89615,0.28129 -5.78869,0.69744 -8.67578,1.23633 -2.81129,0.52475 -5.61616,1.16795 -8.41407,1.92188 -2.7979,0.75392 -5.58869,1.61793 -8.36914,2.58398 -2.78044,0.96605 -5.55163,2.03419 -8.31054,3.19531 -1.71437,0.72151 -3.41437,1.54249 -5.11914,2.33399 -1.09032,0.51904 -2.19138,0.96384 -3.27735,1.50976 -4.0058,1.96781 -7.9469,4.27955 -11.88672,6.58399 -28.05254,16.69976 -54.09928,40.9959 -76.05078,63.38281 -1.31119,1.3372 -2.56517,2.63644 -3.8457,3.95703 3.9132,1.30526 7.79885,2.85317 11.63672,4.67969 4.03174,1.91879 8.01754,4.10024 11.94726,6.49219 3.92973,2.39194 7.80297,4.99341 11.61133,7.7539 3.80836,2.76049 7.55111,5.68066 11.21875,8.70508 3.66764,3.02442 7.26,6.15416 10.76758,9.33789 3.50758,3.18373 6.92964,6.41978 10.25781,9.6582 6.65634,6.47685 12.93521,12.95941 18.75781,19.02735 4.11899,-4.29255 8.49652,-8.79158 13.09571,-13.34961 4.59919,-4.55803 9.42004,-9.17506 14.42578,-13.70313 3.10283,-2.80674 6.27672,-5.57832 9.51367,-8.28125 3.23695,-2.70292 6.53663,-5.33671 9.89063,-7.86523 3.35399,-2.52852 6.76284,-4.95279 10.21679,-7.23633 3.45396,-2.28354 6.9534,-4.42654 10.49024,-6.39453 3.53683,-1.96799 7.11025,-3.75994 10.71289,-5.3418 3.60264,-1.58186 7.23535,-2.95297 10.88672,-4.07812 3.65136,-1.12515 7.32284,-2.00565 11.00586,-2.60352 3.68301,-0.59786 7.37664,-0.91405 11.07421,-0.91406 3.81688,-2e-5 7.59986,0.14002 11.34571,0.41602 3.74584,0.27598 7.4539,0.68877 11.11914,1.23046 3.66523,0.5417 7.28822,1.21267 10.86328,2.00977 3.57506,0.7971 7.10282,1.71951 10.57812,2.76172 3.66086,1.09786 7.2642,2.3299 10.80274,3.68945 3.53853,1.35956 7.01323,2.84719 10.41797,4.45703 3.40474,1.60984 6.73857,3.34074 9.99804,5.18946 3.25948,1.84871 6.44414,3.81444 9.54688,5.89062 3.10274,2.07618 6.12405,4.26245 9.05859,6.55469 2.93454,2.29224 5.78224,4.69061 8.53711,7.1875 2.75487,2.49688 5.41675,5.09308 7.98047,7.7832 2.56373,2.69012 5.02951,5.47376 7.39063,8.3457 2.36111,2.87195 4.61664,5.83264 6.76367,8.875 2.14703,3.04237 4.18399,6.16778 6.10547,9.36914 1.92148,3.20138 3.72765,6.47916 5.41211,9.82813 1.68445,3.34897 3.24762,6.76875 4.68359,10.25391 1.43597,3.48515 2.74588,7.03459 3.92187,10.64453 1.17601,3.60993 2.21848,7.2806 3.12305,11.0039 0.90458,3.72331 1.6713,7.49896 2.29297,11.32422 0.62168,3.82526 1.09848,7.69943 1.42578,11.61524 0.3433,-4.84963 0.53716,-9.7246 0.53711,-14.62305 -2e-5,-3.56962 -0.0909,-7.11737 -0.26953,-10.64258 -0.17866,-3.52521 -0.44586,-7.02743 -0.79883,-10.5039 -0.35297,-3.47647 -0.7915,-6.92817 -1.31445,-10.35157 -0.52295,-3.42339 -1.12976,-6.81955 -1.81836,-10.18554 -0.6886,-3.36599 -1.45868,-6.70161 -2.30859,-10.00586 -0.84992,-3.30426 -1.78021,-6.57627 -2.78711,-9.81446 -1.00691,-3.23818 -2.09044,-6.44354 -3.25,-9.61132 -1.15956,-3.16779 -2.39524,-6.29758 -3.70313,-9.39063 -2.61577,-6.1861 -5.52393,-12.21889 -8.70703,-18.08008 -3.1831,-5.86118 -6.6397,-11.55112 -10.35547,-17.05273 -3.71577,-5.50162 -7.69049,-10.81449 -11.9043,-15.92188 -4.2138,-5.10739 -8.66655,-10.00899 -13.34375,-14.6875 -4.67719,-4.67851 -9.57765,-9.13463 -14.68359,-13.34961 -5.10594,-4.21498 -10.41793,-8.18945 -15.91797,-11.90625 -5.50004,-3.71679 -11.18933,-7.17541 -17.04883,-10.35937 -5.85949,-3.18396 -11.88991,-6.09252 -18.07421,-8.70899 -3.09216,-1.30823 -6.22181,-2.54326 -9.38868,-3.70312 -3.16686,-1.15987 -6.37018,-2.24479 -9.60742,-3.25195 -3.23724,-1.00717 -6.50921,-1.93698 -9.8125,-2.78711 -3.30328,-0.85013 -6.63891,-1.62178 -10.0039,-2.31055 -3.36501,-0.68877 -6.75926,-1.29529 -10.18165,-1.81836 -3.42238,-0.52307 -6.87221,-0.96141 -10.34765,-1.31445 -3.47544,-0.35304 -6.97584,-0.62015 -10.5,-0.79883 -3.52417,-0.17868 -7.07207,-0.26954 -10.64063,-0.26953 z"
       transform="scale(0.26458333)" />
    <path
       id="path27985"
       style="display:inline;opacity:1;fill:#d35f5f;fill-opacity:1;fill-rule:evenodd;stroke:url(#linearGradient1056);stroke-width:0.520148;stroke-linecap:round;stroke-linejoin:round;stroke-miterlimit:4.3;stroke-dasharray:none;stroke-opacity:0.164659;paint-order:normal"
       d="m 154.36268,202.01777 c 0.5511,1.22464 1.04096,2.48244 1.46597,3.76955 0.425,1.2871 0.78523,2.60338 1.07636,3.9453 0.29112,1.34191 0.51342,2.70962 0.66288,4.0987 0.14946,1.38907 0.22603,2.79965 0.22604,4.22823 1e-5,0.96986 -0.036,1.93565 -0.10718,2.89535 -0.0712,0.9597 -0.17772,1.91317 -0.31849,2.85929 -0.14076,0.94611 -0.31602,1.88446 -0.52472,2.81357 -0.20869,0.92911 -0.45088,1.84902 -0.72587,2.7577 -0.27498,0.90867 -0.5823,1.80632 -0.92194,2.69115 -0.33963,0.88482 -0.7113,1.7569 -1.11395,2.61445 -0.40264,0.85755 -0.83634,1.70075 -1.30036,2.52759 -0.46403,0.82685 -0.95846,1.63735 -1.48222,2.43007 -0.54389,0.82319 -1.11958,1.62711 -1.72604,2.40974 -0.60645,0.78264 -1.24369,1.54403 -1.91093,2.28225 -0.66724,0.73823 -1.3645,1.45312 -2.09075,2.14307 -0.72625,0.68995 -1.48149,1.35491 -2.26498,1.99271 l -53.697103,47.34663 -0.08483,0.0747 -0.08483,-0.0747 -24.13454,21.28032 24.503317,21.7243 24.220386,-21.47286 33.55104,-29.74541 15.15031,-13.4319 c 0.7185,-0.58811 1.41961,-1.19304 2.10294,-1.81391 0.68333,-0.62088 1.34886,-1.25787 1.99627,-1.90991 0.64741,-0.65205 1.27684,-1.31927 1.88757,-2.00085 0.61073,-0.68157 1.20252,-1.37717 1.77581,-2.08667 0.5733,-0.70954 1.12795,-1.43262 1.66305,-2.16848 0.5351,-0.73586 1.05109,-1.48458 1.54724,-2.24517 0.49615,-0.76058 0.97243,-1.53308 1.42888,-2.31679 0.45645,-0.7837 0.89302,-1.57863 1.309,-2.38384 0.41599,-0.80521 0.81131,-1.62069 1.18608,-2.44581 0.37477,-0.82511 0.72884,-1.6598 1.06163,-2.50321 0.3328,-0.84341 0.64457,-1.69594 0.93464,-2.55604 0.29007,-0.86009 0.55853,-1.7281 0.80511,-2.60327 0.24659,-0.87518 0.47121,-1.7573 0.67356,-2.64595 0.20234,-0.88865 0.3821,-1.78353 0.53945,-2.68404 0.15734,-0.90051 0.29223,-1.80681 0.40382,-2.71757 0.11159,-0.91076 0.20007,-1.82609 0.26515,-2.7455 -0.0851,-1.0184 -0.20912,-2.02597 -0.37081,-3.02082 -0.16168,-0.99485 -0.36108,-1.9768 -0.59634,-2.94514 -0.23525,-0.96833 -0.50637,-1.92297 -0.81222,-2.86182 -0.30584,-0.93885 -0.64652,-1.86197 -1.01998,-2.76836 -0.37345,-0.9064 -0.77999,-1.7958 -1.21807,-2.66678 -0.43809,-0.87098 -0.90783,-1.72344 -1.40755,-2.55604 -0.49973,-0.83258 -1.02949,-1.64542 -1.58787,-2.43666 -0.55839,-0.79124 -1.14499,-1.56124 -1.75906,-2.30816 -0.61406,-0.74691 -1.25535,-1.47087 -1.92211,-2.17049 -0.66675,-0.69963 -1.35904,-1.37484 -2.07551,-2.02421 -0.71647,-0.64938 -1.45708,-1.27313 -2.22028,-1.86928 -0.76319,-0.59615 -1.54896,-1.16474 -2.3559,-1.7047 -0.80694,-0.53996 -1.63518,-1.0512 -2.48289,-1.532 -0.8477,-0.4808 -1.71474,-0.93096 -2.60023,-1.34964 -0.88548,-0.41868 -1.78916,-0.80557 -2.70944,-1.15916 -0.92028,-0.35358 -1.85741,-0.674 -2.80951,-0.95953 z"
       inkscape:export-xdpi="96"
       inkscape:export-ydpi="96" />
    <path
       id="path27979"
       style="display:inline;opacity:1;fill:#800000;fill-opacity:1;fill-rule:evenodd;stroke:none;stroke-width:75.0002;stroke-linecap:round;stroke-linejoin:round;stroke-miterlimit:4.3;stroke-dasharray:none;stroke-opacity:0.971888;paint-order:normal"
       d="m 337.96484,1120.9492 -0.32617,0.2871 0.32617,0.2871 0.32618,-0.2871 z"
       transform="scale(0.26458333)" />
    <path
       id="path27969"
       style="display:inline;opacity:1;fill:#3e1420;fill-opacity:1;fill-rule:evenodd;stroke:#000000;stroke-width:2;stroke-linecap:round;stroke-linejoin:round;stroke-miterlimit:4.3;stroke-dasharray:none;stroke-opacity:0.148594;paint-order:normal"
       d="m 187.42773,671.11133 c -3.56856,-10e-6 -7.11645,0.0909 -10.64062,0.26953 -3.52417,0.17868 -7.02456,0.44579 -10.5,0.79883 -3.47544,0.35304 -6.92527,0.79138 -10.34766,1.31445 -3.42238,0.52307 -6.81664,1.12959 -10.18164,1.81836 -3.365,0.68877 -6.70062,1.46042 -10.0039,2.31055 -3.30329,0.85013 -6.57526,1.77994 -9.8125,2.78711 -3.23724,1.00716 -6.44056,2.09208 -9.60743,3.25195 -3.16686,1.15986 -6.29651,2.39489 -9.38867,3.70312 -5.70662,2.41437 -11.246543,5.1384 -16.677732,8.03711 -64.444285,35.0266 -108.19284,103.32744 -108.193359,181.85157 -2.5e-5,2.22565 0.114263,4.43586 0.185547,6.65234 0.139359,-0.9794 0.205142,-1.98181 0.363281,-2.95508 0.621568,-3.82543 1.388468,-7.6027 2.292969,-11.32617 0.9045,-3.72347 1.947086,-7.39381 3.123046,-11.00391 1.175962,-3.61009 2.4839731,-7.15921 3.9199224,-10.64453 1.4359492,-3.48531 2.9991286,-6.90673 4.6835937,-10.25586 1.6844652,-3.34912 3.49060042,-6.6266 5.4121094,-9.82812 1.921509,-3.20152 3.9583882,-6.32664 6.1054687,-9.36914 2.1470808,-3.04251 4.4044448,-6.00292 6.7656248,-8.875 2.36118,-2.87208 4.826818,-5.65546 7.390625,-8.34571 2.563808,-2.69024 5.225507,-5.2862 7.980469,-7.7832 2.754962,-2.497 5.602464,-4.89516 8.537109,-7.1875 2.934646,-2.29234 5.957691,-4.47841 9.060547,-6.55469 3.102856,-2.07627 6.285328,-4.04183 9.544922,-5.89062 3.259595,-1.8488 6.595139,-3.5815 10,-5.19141 3.404861,-1.6099 6.879314,-3.09742 10.417969,-4.45703 3.538655,-1.3596 7.141757,-2.59156 10.802734,-3.68945 3.475304,-1.04221 7.003068,-1.96462 10.578125,-2.76172 3.575059,-0.7971 7.198049,-1.46807 10.863279,-2.00977 3.66524,-0.54169 7.3733,-0.95448 11.11914,-1.23046 3.74585,-0.276 7.52883,-0.41604 11.34571,-0.41602 3.72735,10e-6 7.43938,0.32249 11.13086,0.92969 3.69147,0.60719 7.36165,1.49852 11.0039,2.64062 3.64225,1.1421 7.25823,2.53394 10.83789,4.13867 3.57966,1.60473 7.12324,3.4229 10.62696,5.41797 3.50371,1.99508 6.96644,4.16733 10.38086,6.48047 3.4144,2.31314 6.782,4.76725 10.09374,7.32617 3.31176,2.55893 6.56793,5.22265 9.76368,7.95508 3.19574,2.73243 6.33011,5.53353 9.39648,8.36719 4.80942,4.44441 9.45129,8.96848 13.90039,13.43359 0.55614,0.55814 1.1101,1.11586 1.66016,1.67188 0.55006,0.55603 1.09674,1.1107 1.64062,1.66406 0.54388,0.55336 1.0835,1.10415 1.6211,1.6543 0.53759,0.55014 1.07231,1.1001 1.60351,1.64648 0.5312,0.54638 1.05929,1.09073 1.58399,1.63281 0.52471,0.54207 1.04634,1.08192 1.56445,1.61914 0.5181,0.53722 1.03351,1.07171 1.54492,1.60352 0.5114,0.53181 1.01885,1.06009 1.52344,1.58594 0.71804,-0.74829 1.44423,-1.50363 2.17773,-2.26367 0.7335,-0.76004 1.47407,-1.5247 2.22266,-2.29493 0.74859,-0.77023 1.50428,-1.54537 2.26758,-2.32422 0.7633,-0.77884 1.53487,-1.56174 2.3125,-2.34765 0.77762,-0.78591 1.56194,-1.57384 2.35351,-2.36524 0.79157,-0.7914 1.5894,-1.58553 2.39454,-2.38085 0.80513,-0.79533 1.61722,-1.59293 2.43554,-2.39063 0.81833,-0.7977 1.64348,-1.59603 2.47461,-2.39453 3.32454,-3.19401 6.74948,-6.38924 10.26367,-9.5332 3.51419,-3.14397 7.1174,-6.23685 10.79688,-9.23047 3.67947,-2.99363 7.43547,-5.88788 11.25586,-8.63086 3.82039,-2.74299 7.70563,-5.33453 11.64258,-7.72657 3.93695,-2.39202 7.92594,-4.58459 11.95507,-6.52539 4.02914,-1.9408 8.09835,-3.63027 12.19532,-5.01953 -1.35972,-1.4083 -2.76952,-2.84323 -4.16016,-4.26953 -4.17905,-4.28621 -8.49497,-8.64278 -12.93555,-13 -4.44058,-4.35721 -9.0062,-8.71548 -13.68359,-13.00781 -4.67739,-4.29233 -9.46599,-8.51781 -14.35547,-12.60938 -4.88947,-4.09157 -9.8802,-8.04976 -14.95703,-11.80468 -5.07684,-3.75493 -10.241,-7.30744 -15.48047,-10.58985 -5.23947,-3.2824 -10.55425,-6.2928 -15.93164,-8.96679 -2.68869,-1.337 -5.39279,-2.59058 -8.11133,-3.75 -2.71853,-1.15942 -5.45002,-2.22655 -8.19531,-3.19141 -2.74529,-0.96486 -5.50449,-1.82677 -8.27344,-2.58008 -2.76895,-0.7533 -5.54837,-1.3971 -8.33789,-1.92187 -2.8728,-0.54044 -5.75565,-0.95836 -8.64648,-1.24024 -2.89083,-0.28188 -5.78964,-0.42773 -8.69532,-0.42773 z"
       transform="scale(0.26458333)" />
    <path
       id="path27963"
       style="display:inline;opacity:1;fill:#f4d7d7;fill-opacity:1;fill-rule:evenodd;stroke:#000000;stroke-width:0.520283;stroke-linecap:round;stroke-linejoin:round;stroke-miterlimit:4.3;stroke-dasharray:none;stroke-opacity:0;paint-order:normal"
       d="m 23.77467,201.61114 c -0.952372,0.2856 -1.889688,0.60609 -2.810238,0.95977 -0.92055,0.35369 -1.824398,0.74066 -2.710144,1.15946 -0.885744,0.4188 -1.753456,0.86955 -2.601412,1.3505 -0.847955,0.48095 -1.675847,0.99227 -2.483028,1.53239 -0.807181,0.54013 -1.593599,1.10882 -2.357022,1.70515 -0.763423,0.59633 -1.5041744,1.22019 -2.220854,1.86976 -0.7166793,0.64958 -1.409097,1.3249 -2.0760492,2.02474 -0.6669521,0.69984 -1.3083662,1.42391 -1.9226066,2.17105 -0.6142404,0.74716 -1.2014739,1.51728 -1.7600182,2.30876 -0.5585443,0.79149 -1.0884206,1.60445 -1.5882844,2.4373 -0.49986367,0.83285 -0.96971394,1.68546 -1.40791289,2.5567 -0.43819884,0.87125 -0.84484631,1.7613 -1.21839601,2.66798 -0.3735497,0.90667 -0.7138174,1.82994 -1.0197337,2.76907 -0.3059157,0.93914 -0.5771352,1.89394 -0.8124331,2.86257 -0.2352979,0.96863 -0.4348003,1.95126 -0.5964958,2.94641 -0.041138,0.25319 -0.058251,0.51396 -0.094504,0.76874 0.4982858,15.49366 7.6398581,30.05778 19.6767389,39.91034 l 13.214872,11.71601 35.416301,31.39884 24.140805,-21.28585 -53.710532,-47.35892 c -0.783715,-0.63798 -1.539123,-1.30306 -2.265567,-1.99322 -0.726445,-0.69018 -1.423884,-1.40567 -2.091292,-2.14414 -0.667408,-0.73846 -1.304822,-1.49995 -1.91143,-2.28284 -0.606607,-0.78289 -1.182441,-1.58693 -1.726485,-2.41037 -0.523875,-0.79292 -1.018452,-1.60365 -1.482601,-2.4307 -0.464148,-0.82704 -0.897932,-1.67049 -1.300706,-2.52824 -0.402774,-0.85776 -0.774483,-1.7301 -1.114238,-2.61514 -0.339754,-0.88503 -0.647597,-1.78245 -0.922689,-2.69134 -0.27509,-0.90888 -0.517275,-1.82909 -0.726058,-2.75841 -0.208783,-0.92932 -0.384025,-1.86797 -0.524855,-2.81431 -0.14083,-0.94633 -0.24734,-1.9001 -0.318572,-2.86002 -0.07123,-0.95993 -0.107217,-1.92602 -0.107206,-2.89611 1e-5,-1.42895 0.07655,-2.83989 0.226099,-4.22933 0.14955,-1.38943 0.372296,-2.75749 0.663563,-4.09976 0.291269,-1.34226 0.651475,-2.65888 1.07664,-3.94633 0.425165,-1.28743 0.915103,-2.54556 1.466344,-3.77051 z" />
    <text
       xml:space="preserve"
       id="text1012"
       style="font-style:normal;font-weight:normal;font-size:10.5833px;line-height:1.25;font-family:sans-serif;white-space:pre;shape-inside:url(#rect1014);fill:#000000;fill-opacity:1;stroke:none;" />
    <text
       xml:space="preserve"
       id="text1168"
       style="font-style:normal;font-weight:normal;font-size:10.5833px;line-height:1.25;font-family:sans-serif;white-space:pre;shape-inside:url(#rect1170);fill:#000000;fill-opacity:1;stroke:none;" />
  </g>
  <g
     transform="translate(5.0074462,-177.30029)"
     inkscape:groupmode="layer"
     id="layer3"
     inkscape:label="heart 1"
     style="display:none">
    <text
       xml:space="preserve"
       style="font-style:normal;font-variant:normal;font-weight:normal;font-stretch:normal;font-size:14.4572px;line-height:1.25;font-family:'Segoe Script';-inkscape-font-specification:'Segoe Script';display:inline;stroke-width:0.264584"
       x="50.187176"
       y="45.974171"
       id="text1039"><tspan
         sodipodi:role="line"
         id="tspan1037"
         x="50.187176"
         y="45.974171"
         style="font-style:normal;font-variant:normal;font-weight:bold;font-stretch:normal;font-family:'Segoe Script';-inkscape-font-specification:'Segoe Script';stroke-width:0.264584">Compassionate</tspan><tspan
         sodipodi:role="line"
         x="50.187176"
         y="64.049171"
         style="font-style:normal;font-variant:normal;font-weight:bold;font-stretch:normal;font-family:'Segoe Script';-inkscape-font-specification:'Segoe Script';stroke-width:0.264584"
         id="tspan1041">Transfer &amp; Removal</tspan></text>
  </g>
</svg>
