<?xml version="1.0" encoding="UTF-8" standalone="no"?>
<svg
   xmlns:dc="http://purl.org/dc/elements/1.1/"
   xmlns:cc="http://creativecommons.org/ns#"
   xmlns:rdf="http://www.w3.org/1999/02/22-rdf-syntax-ns#"
   xmlns:svg="http://www.w3.org/2000/svg"
   xmlns="http://www.w3.org/2000/svg"
   xmlns:xlink="http://www.w3.org/1999/xlink"
   xmlns:sodipodi="http://sodipodi.sourceforge.net/DTD/sodipodi-0.dtd"
   xmlns:inkscape="http://www.inkscape.org/namespaces/inkscape"
   width="339.16263mm"
   height="258.81009mm"
   viewBox="0 0 339.16263 258.81009"
   version="1.1"
   id="svg8"
   sodipodi:docname="hear2.svg"
   inkscape:version="1.0 (4035a4fb49, 2020-05-01)"
   inkscape:export-filename="C:\Users\School\Desktop\CTR\hear2.png"
   inkscape:export-xdpi="96"
   inkscape:export-ydpi="96">
  <defs
     id="defs2">
    <rect
       x="-110.79251"
       y="340.26912"
       width="429.55558"
       height="130.21371"
       id="rect3455" />
    <rect
       x="-86.84516"
       y="340.26912"
       width="125.72359"
       height="83.067369"
       id="rect3449" />
    <rect
       x="166.13474"
       y="288.11655"
       width="27.314945"
       height="15.341271"
       id="rect1170" />
    <linearGradient
       inkscape:collect="always"
       id="linearGradient1062">
      <stop
         style="stop-color:#000000;stop-opacity:1;"
         offset="0"
         id="stop1058" />
      <stop
         style="stop-color:#000000;stop-opacity:0;"
         offset="1"
         id="stop1060" />
    </linearGradient>
    <rect
       x="192.70132"
       y="206.92007"
       width="158.27701"
       height="113.00156"
       id="rect1014" />
    <inkscape:path-effect
       effect="skeletal"
       id="path-effect27786"
       is_visible="true"
       lpeversion="1"
       pattern="M 0,5 C 0,2.24 2.24,0 5,0 7.76,0 10,2.24 10,5 10,7.76 7.76,10 5,10 2.24,10 0,7.76 0,5 Z"
       copytype="single_stretched"
       prop_scale="0.379686"
       scale_y_rel="false"
       spacing="0"
       normal_offset="0"
       tang_offset="0"
       prop_units="false"
       vertical_pattern="false"
       hide_knot="false"
       fuse_tolerance="0" />
    <inkscape:path-effect
       effect="skeletal"
       id="path-effect27782"
       is_visible="true"
       lpeversion="1"
       pattern="M 0,5 C 0,2.24 2.24,0 5,0 7.76,0 10,2.24 10,5 10,7.76 7.76,10 5,10 2.24,10 0,7.76 0,5 Z"
       copytype="single_stretched"
       prop_scale="0.379686"
       scale_y_rel="false"
       spacing="0"
       normal_offset="0"
       tang_offset="0"
       prop_units="false"
       vertical_pattern="false"
       hide_knot="false"
       fuse_tolerance="0" />
    <inkscape:path-effect
       effect="skeletal"
       id="path-effect3466"
       is_visible="true"
       lpeversion="1"
       pattern="M 0,5 C 0,2.24 2.24,0 5,0 7.76,0 10,2.24 10,5 10,7.76 7.76,10 5,10 2.24,10 0,7.76 0,5 Z"
       copytype="single_stretched"
       prop_scale="0.379686"
       scale_y_rel="false"
       spacing="0"
       normal_offset="0"
       tang_offset="0"
       prop_units="false"
       vertical_pattern="false"
       hide_knot="false"
       fuse_tolerance="0" />
    <marker
       inkscape:stockid="Arrow1Lstart"
       orient="auto"
       refY="0"
       refX="0"
       id="Arrow1Lstart"
       style="overflow:visible"
       inkscape:isstock="true">
      <path
         id="path1143"
         d="M 0,0 5,-5 -12.5,0 5,5 Z"
         style="fill:#800000;fill-opacity:1;fill-rule:evenodd;stroke:#800000;stroke-width:1pt;stroke-opacity:1"
         transform="matrix(0.8,0,0,0.8,10,0)" />
    </marker>
    <inkscape:path-effect
       fuse_tolerance="0"
       hide_knot="false"
       vertical_pattern="false"
       prop_units="false"
       tang_offset="0"
       normal_offset="0"
       spacing="0"
       scale_y_rel="false"
       prop_scale="1"
       copytype="single_stretched"
       pattern="m 140.00635,-78.947457 c -0.69327,-2.671512 -3.42411,-4.277045 -6.09562,-3.583779 -2.67152,0.693265 -4.27704,3.4241 -3.58378,6.095614 0.69326,2.671513 3.42411,4.277046 6.09561,3.583781 2.67152,-0.693269 4.27705,-3.424103 3.58379,-6.095616 z"
       lpeversion="1"
       is_visible="true"
       id="path-effect1094"
       effect="skeletal" />
    <inkscape:path-effect
       only_selected="false"
       apply_with_weight="true"
       apply_no_weight="true"
       helper_size="0"
       steps="2"
       weight="33"
       lpeversion="1"
       is_visible="true"
       id="path-effect1092"
       effect="bspline" />
    <inkscape:path-effect
       fuse_tolerance="0"
       hide_knot="false"
       vertical_pattern="false"
       prop_units="false"
       tang_offset="0"
       normal_offset="0"
       spacing="0"
       scale_y_rel="false"
       prop_scale="1"
       copytype="single_stretched"
       pattern="m 124.98481,11.621304 c -0.76353,-2.652281 -3.53578,-4.1851949 -6.18806,-3.4216583 -2.65229,0.7635241 -4.18519,3.5357793 -3.42167,6.1880603 0.76352,2.652291 3.53578,4.185195 6.18806,3.421671 2.6523,-0.763526 4.1852,-3.535782 3.42167,-6.188073 z"
       lpeversion="1"
       is_visible="true"
       id="path-effect1073"
       effect="skeletal" />
    <inkscape:path-effect
       only_selected="false"
       apply_with_weight="true"
       apply_no_weight="true"
       helper_size="0"
       steps="2"
       weight="33"
       lpeversion="1"
       is_visible="true"
       id="path-effect1071"
       effect="bspline" />
    <inkscape:path-effect
       fuse_tolerance="0"
       hide_knot="false"
       vertical_pattern="false"
       prop_units="false"
       tang_offset="0"
       normal_offset="0"
       spacing="0"
       scale_y_rel="false"
       prop_scale="0.8636728"
       copytype="single_stretched"
       pattern="m 160.91218,-53.498614 c 0,-2.76 -2.24,-5 -5,-5 -2.76,0 -5,2.24 -5,5 0,2.76 2.24,5 5,5 2.76,0 5,-2.24 5,-5 z"
       lpeversion="1"
       is_visible="true"
       id="path-effect196"
       effect="skeletal" />
    <inkscape:path-effect
       only_selected="false"
       apply_with_weight="true"
       apply_no_weight="true"
       helper_size="0"
       steps="2"
       weight="33.333333"
       lpeversion="1"
       is_visible="true"
       id="path-effect194"
       effect="bspline" />
    <inkscape:path-effect
       effect="skeletal"
       id="path-effect190"
       is_visible="true"
       lpeversion="1"
       pattern="m -78.497115,-32.806222 c -0.441613,-2.724441 1.411119,-5.29399 4.13556,-5.735602 2.72444,-0.441613 5.29399,1.411119 5.735602,4.135561 0.441611,2.724442 -1.41112,5.293992 -4.135561,5.735603 -2.724442,0.44161 -5.293991,-1.411121 -5.735601,-4.135562 z"
       copytype="single_stretched"
       prop_scale="1"
       scale_y_rel="false"
       spacing="0"
       normal_offset="0"
       tang_offset="0"
       prop_units="false"
       vertical_pattern="false"
       hide_knot="false"
       fuse_tolerance="0" />
    <inkscape:path-effect
       effect="bspline"
       id="path-effect188"
       is_visible="true"
       lpeversion="1"
       weight="33"
       steps="2"
       helper_size="0"
       apply_no_weight="true"
       apply_with_weight="true"
       only_selected="false" />
    <inkscape:path-effect
       fuse_tolerance="0"
       hide_knot="false"
       vertical_pattern="false"
       prop_units="false"
       tang_offset="0"
       normal_offset="0"
       spacing="0"
       scale_y_rel="false"
       prop_scale="1"
       copytype="single_stretched"
       pattern="m 59.349861,42.298804 c 0,-2.76 2.24,-5 5,-5 2.76,0 5,2.24 5,5 0,2.76 -2.24,5 -5,5 -2.76,0 -5,-2.24 -5,-5 z"
       lpeversion="1"
       is_visible="true"
       id="path-effect163"
       effect="skeletal" />
    <inkscape:path-effect
       only_selected="false"
       apply_with_weight="true"
       apply_no_weight="true"
       helper_size="0"
       steps="2"
       weight="33.333333"
       lpeversion="1"
       is_visible="true"
       id="path-effect161"
       effect="bspline" />
    <inkscape:path-effect
       effect="skeletal"
       id="path-effect130"
       is_visible="true"
       lpeversion="1"
       pattern="M 0,5 C 0,2.24 2.24,0 5,0 7.76,0 10,2.24 10,5 10,7.76 7.76,10 5,10 2.24,10 0,7.76 0,5 Z"
       copytype="single_stretched"
       prop_scale="1"
       scale_y_rel="false"
       spacing="0"
       normal_offset="0"
       tang_offset="0"
       prop_units="false"
       vertical_pattern="false"
       hide_knot="false"
       fuse_tolerance="0" />
    <inkscape:path-effect
       effect="bspline"
       id="path-effect128"
       is_visible="true"
       lpeversion="1"
       weight="33.333333"
       steps="2"
       helper_size="0"
       apply_no_weight="true"
       apply_with_weight="true"
       only_selected="false" />
    <inkscape:path-effect
       effect="skeletal"
       id="path-effect101"
       is_visible="true"
       lpeversion="1"
       pattern="M 0,5 C 0,2.24 2.24,0 5,0 7.76,0 10,2.24 10,5 10,7.76 7.76,10 5,10 2.24,10 0,7.76 0,5 Z"
       copytype="single_stretched"
       prop_scale="1"
       scale_y_rel="false"
       spacing="0"
       normal_offset="0"
       tang_offset="0"
       prop_units="false"
       vertical_pattern="false"
       hide_knot="false"
       fuse_tolerance="0" />
    <inkscape:path-effect
       effect="bspline"
       id="path-effect99"
       is_visible="true"
       lpeversion="1"
       weight="33.333333"
       steps="2"
       helper_size="0"
       apply_no_weight="true"
       apply_with_weight="true"
       only_selected="false" />
    <inkscape:path-effect
       effect="skeletal"
       id="path-effect95"
       is_visible="true"
       lpeversion="1"
       pattern="M 0,5 C 0,2.24 2.24,0 5,0 7.76,0 10,2.24 10,5 10,7.76 7.76,10 5,10 2.24,10 0,7.76 0,5 Z"
       copytype="single_stretched"
       prop_scale="1"
       scale_y_rel="false"
       spacing="0"
       normal_offset="0"
       tang_offset="0"
       prop_units="false"
       vertical_pattern="false"
       hide_knot="false"
       fuse_tolerance="0" />
    <inkscape:path-effect
       effect="skeletal"
       id="path-effect75"
       is_visible="true"
       lpeversion="1"
       pattern="M 0,5 C 0,2.24 2.24,0 5,0 7.76,0 10,2.24 10,5 10,7.76 7.76,10 5,10 2.24,10 0,7.76 0,5 Z"
       copytype="single_stretched"
       prop_scale="1"
       scale_y_rel="false"
       spacing="0"
       normal_offset="0"
       tang_offset="0"
       prop_units="false"
       vertical_pattern="false"
       hide_knot="false"
       fuse_tolerance="0" />
    <inkscape:path-effect
       effect="skeletal"
       id="path-effect69"
       is_visible="true"
       lpeversion="1"
       pattern="M 0,5 C 0,2.24 2.24,0 5,0 7.76,0 10,2.24 10,5 10,7.76 7.76,10 5,10 2.24,10 0,7.76 0,5 Z"
       copytype="single_stretched"
       prop_scale="1"
       scale_y_rel="false"
       spacing="0"
       normal_offset="0"
       tang_offset="0"
       prop_units="false"
       vertical_pattern="false"
       hide_knot="false"
       fuse_tolerance="0" />
    <inkscape:path-effect
       effect="skeletal"
       id="path-effect63"
       is_visible="true"
       lpeversion="1"
       pattern="M 0,5 C 0,2.24 2.24,0 5,0 7.76,0 10,2.24 10,5 10,7.76 7.76,10 5,10 2.24,10 0,7.76 0,5 Z"
       copytype="single_stretched"
       prop_scale="1"
       scale_y_rel="false"
       spacing="0"
       normal_offset="0"
       tang_offset="0"
       prop_units="false"
       vertical_pattern="false"
       hide_knot="false"
       fuse_tolerance="0" />
    <inkscape:path-effect
       effect="skeletal"
       id="path-effect57"
       is_visible="true"
       lpeversion="1"
       pattern="M 0,5 C 0,2.24 2.24,0 5,0 7.76,0 10,2.24 10,5 10,7.76 7.76,10 5,10 2.24,10 0,7.76 0,5 Z"
       copytype="single_stretched"
       prop_scale="1"
       scale_y_rel="false"
       spacing="0"
       normal_offset="0"
       tang_offset="0"
       prop_units="false"
       vertical_pattern="false"
       hide_knot="false"
       fuse_tolerance="0" />
    <inkscape:path-effect
       effect="skeletal"
       id="path-effect49"
       is_visible="true"
       lpeversion="1"
       pattern="M 0,5 C 0,2.24 2.24,0 5,0 7.76,0 10,2.24 10,5 10,7.76 7.76,10 5,10 2.24,10 0,7.76 0,5 Z"
       copytype="single_stretched"
       prop_scale="1"
       scale_y_rel="false"
       spacing="0"
       normal_offset="0"
       tang_offset="0"
       prop_units="false"
       vertical_pattern="false"
       hide_knot="false"
       fuse_tolerance="0" />
    <inkscape:path-effect
       effect="skeletal"
       id="path-effect1027"
       is_visible="true"
       lpeversion="1"
       pattern="M 0,5 C 0,2.24 2.24,0 5,0 7.76,0 10,2.24 10,5 10,7.76 7.76,10 5,10 2.24,10 0,7.76 0,5 Z"
       copytype="single_stretched"
       prop_scale="1"
       scale_y_rel="false"
       spacing="0"
       normal_offset="0"
       tang_offset="0"
       prop_units="false"
       vertical_pattern="false"
       hide_knot="false"
       fuse_tolerance="0" />
    <inkscape:path-effect
       effect="bspline"
       id="path-effect1025"
       is_visible="true"
       lpeversion="1"
       weight="33.333333"
       steps="2"
       helper_size="0"
       apply_no_weight="true"
       apply_with_weight="true"
       only_selected="false" />
    <inkscape:path-effect
       effect="skeletal"
       id="path-effect1021"
       is_visible="true"
       lpeversion="1"
       pattern="M 0,5 C 0,2.24 2.24,0 5,0 7.76,0 10,2.24 10,5 10,7.76 7.76,10 5,10 2.24,10 0,7.76 0,5 Z"
       copytype="single_stretched"
       prop_scale="1"
       scale_y_rel="false"
       spacing="0"
       normal_offset="0"
       tang_offset="0"
       prop_units="false"
       vertical_pattern="false"
       hide_knot="false"
       fuse_tolerance="0" />
    <inkscape:path-effect
       effect="bspline"
       id="path-effect959"
       is_visible="true"
       lpeversion="1"
       weight="33.333333"
       steps="2"
       helper_size="0"
       apply_no_weight="true"
       apply_with_weight="true"
       only_selected="false" />
    <inkscape:path-effect
       effect="skeletal"
       id="path-effect961"
       is_visible="true"
       lpeversion="1"
       pattern="M 0,5 C 0,2.24 2.24,0 5,0 7.76,0 10,2.24 10,5 10,7.76 7.76,10 5,10 2.24,10 0,7.76 0,5 Z"
       copytype="single_stretched"
       prop_scale="1"
       scale_y_rel="false"
       spacing="0"
       normal_offset="0"
       tang_offset="0"
       prop_units="false"
       vertical_pattern="false"
       hide_knot="false"
       fuse_tolerance="0" />
    <linearGradient
       inkscape:collect="always"
       xlink:href="#linearGradient1062"
       id="linearGradient1064"
       x1="224.51309"
       y1="211.98891"
       x2="374.35464"
       y2="211.98891"
       gradientUnits="userSpaceOnUse" />
    <linearGradient
       gradientTransform="matrix(0.26007375,0,0,0.26007375,-24.723095,17.516914)"
       gradientUnits="userSpaceOnUse"
       y2="1023.5703"
       x2="695.73242"
       y1="1023.5703"
       x1="243.83989"
       id="linearGradient1056"
       xlink:href="#linearGradient1026"
       inkscape:collect="always" />
    <linearGradient
       id="linearGradient1026"
       inkscape:collect="always">
      <stop
         id="stop1022"
         offset="0"
         style="stop-color:#561420;stop-opacity:1;" />
      <stop
         style="stop-color:#561420;stop-opacity:0"
         offset="0.28365344"
         id="stop1038" />
      <stop
         id="stop1048"
         offset="0.69369787"
         style="stop-color:#561420;stop-opacity:0.07843137;" />
      <stop
         id="stop1024"
         offset="1"
         style="stop-color:#561420;stop-opacity:0.89558238" />
    </linearGradient>
  </defs>
  <sodipodi:namedview
     id="base"
     pagecolor="#ffffff"
     bordercolor="#666666"
     borderopacity="1.0"
     inkscape:pageopacity="0.0"
     inkscape:pageshadow="2"
     inkscape:zoom="0.5"
     inkscape:cx="797.26382"
     inkscape:cy="502.17428"
     inkscape:document-units="px"
     inkscape:current-layer="layer2"
     inkscape:document-rotation="0"
     showgrid="false"
     showguides="false"
     inkscape:window-width="1920"
     inkscape:window-height="1027"
     inkscape:window-x="1912"
     inkscape:window-y="-8"
     inkscape:window-maximized="1"
     showborder="true"
     inkscape:snap-others="false"
     inkscape:object-nodes="false"
     inkscape:snap-nodes="false"
     inkscape:snap-bbox="true"
     inkscape:snap-bbox-edge-midpoints="true" />
  <metadata
     id="metadata5">
    <rdf:RDF>
      <cc:Work
         rdf:about="">
        <dc:format>image/svg+xml</dc:format>
        <dc:type
           rdf:resource="http://purl.org/dc/dcmitype/StillImage" />
        <dc:title />
      </cc:Work>
    </rdf:RDF>
  </metadata>
  <g
     transform="translate(99.567189,-190.59819)"
     inkscape:groupmode="layer"
     id="layer2"
     inkscape:label="heart"
     style="display:inline">
    <path
       id="path27979"
       style="display:inline;opacity:1;fill:#800000;fill-opacity:1;fill-rule:evenodd;stroke:none;stroke-width:19.8438;stroke-linecap:round;stroke-linejoin:round;stroke-miterlimit:4.3;stroke-dasharray:none;stroke-opacity:0.971888;paint-order:normal"
       d="m 92.065696,296.58447 -0.0863,0.076 0.0863,0.076 0.0863,-0.076 z" />
    <text
       xml:space="preserve"
       id="text1012"
       style="font-style:normal;font-weight:normal;font-size:10.5833px;line-height:1.25;font-family:sans-serif;white-space:pre;shape-inside:url(#rect1014);fill:#000000;fill-opacity:1;stroke:none" />
    <text
       xml:space="preserve"
       id="text1168"
       style="font-style:normal;font-weight:normal;font-size:10.5833px;line-height:1.25;font-family:sans-serif;white-space:pre;shape-inside:url(#rect1170);fill:#000000;fill-opacity:1;stroke:none" />
    <path
       d="m 102.89759,190.86279 c -0.76765,0 -1.53488,0.0387 -2.30115,0.11317 -0.766267,0.0744 -1.531587,0.18453 -2.295467,0.32712 -0.74382,0.13884 -1.48594,0.30902 -2.22622,0.50849 -0.74028,0.19948 -1.47867,0.42808 -2.21433,0.68368 -0.73566,0.2556 -1.46887,0.53821 -2.19883,0.84543 -0.4536,0.1909 -0.90339,0.40811 -1.35444,0.61753 -0.28848,0.13733 -0.57981,0.25502 -0.86714,0.39946 -1.05986,0.52065 -2.10261,1.1323 -3.14502,1.74201 -7.42224,4.41848 -14.313771,10.84683 -20.121772,16.77004 -0.346919,0.3538 -0.678701,0.69756 -1.017508,1.04696 1.035368,0.34535 2.063446,0.7549 3.078882,1.23817 1.066732,0.50768 2.121308,1.08486 3.161046,1.71773 1.039741,0.63286 2.064536,1.32117 3.072162,2.05155 1.00763,0.73038 1.9979,1.50301 2.9683,2.30322 0.97039,0.80021 1.92087,1.62828 2.84892,2.47065 0.92805,0.84236 1.83347,1.69856 2.71404,2.5554 1.76116,1.71366 3.42245,3.42884 4.96301,5.03432 1.08981,-1.13574 2.24804,-2.32611 3.4649,-3.53209 1.21687,-1.20598 2.49239,-2.42757 3.81683,-3.62562 0.82095,-0.74262 1.66071,-1.47593 2.51715,-2.19108 0.85645,-0.71515 1.72949,-1.412 2.616897,-2.08101 0.88741,-0.669 1.78933,-1.31042 2.70319,-1.91461 0.91386,-0.60419 1.83976,-1.17119 2.77554,-1.69189 0.93579,-0.52069 1.88126,-0.99481 2.83446,-1.41335 0.9532,-0.41853 1.91435,-0.7813 2.88044,-1.079 0.96609,-0.2977 1.9375,-0.53066 2.91197,-0.68885 0.97446,-0.15818 1.95173,-0.24184 2.93005,-0.24184 1.00988,-1e-5 2.0108,0.037 3.00189,0.11007 0.99108,0.073 1.97217,0.18224 2.94193,0.32556 0.96976,0.14332 1.92835,0.32085 2.87425,0.53175 0.9459,0.2109 1.87928,0.45495 2.79879,0.7307 0.9686,0.29048 1.92199,0.61646 2.85823,0.97617 0.93623,0.35972 1.85558,0.75332 2.75642,1.17926 0.90083,0.42593 1.78291,0.8839 2.64531,1.37304 0.86241,0.48914 1.70501,1.00924 2.52595,1.55856 0.82093,0.54932 1.62032,1.12777 2.39675,1.73426 0.77643,0.60649 1.52988,1.24106 2.25878,1.9017 0.72889,0.66063 1.43318,1.34754 2.1115,2.0593 0.67832,0.71176 1.33072,1.44827 1.95543,2.20813 0.62471,0.75987 1.22149,1.54322 1.78956,2.34818 0.56807,0.80496 1.10701,1.63189 1.6154,2.47892 0.50839,0.84703 0.98628,1.71428 1.43196,2.60036 0.44567,0.88608 0.85926,1.7909 1.2392,2.71301 0.37993,0.92211 0.72651,1.86124 1.03766,2.81637 0.31115,0.95512 0.58697,1.92632 0.8263,2.91145 0.23934,0.98512 0.4422,1.9841 0.60669,2.9962 0.16448,1.0121 0.29064,2.03714 0.37723,3.07319 0.0908,-1.28313 0.14213,-2.57296 0.14211,-3.86901 0,-0.94446 -0.024,-1.88314 -0.0713,-2.81585 -0.0473,-0.93271 -0.11797,-1.85934 -0.21136,-2.77916 -0.0934,-0.91981 -0.20941,-1.83307 -0.34778,-2.73885 -0.13836,-0.90577 -0.29891,-1.80434 -0.48111,-2.69492 -0.18219,-0.89059 -0.38594,-1.77314 -0.61081,-2.64739 -0.22487,-0.87425 -0.47101,-1.73997 -0.73742,-2.59674 -0.26641,-0.85677 -0.5531,-1.70485 -0.8599,-2.54299 -0.3068,-0.83815 -0.63374,-1.66624 -0.97978,-2.48461 -0.69209,-1.63674 -1.46154,-3.23291 -2.30374,-4.78369 -0.84219,-1.55077 -1.75675,-3.05623 -2.73988,-4.51186 -0.98313,-1.45564 -2.03478,-2.86134 -3.14968,-4.21267 -1.1149,-1.35133 -2.29303,-2.64821 -3.53054,-3.88607 -1.2375,-1.23785 -2.53408,-2.41687 -3.88503,-3.53208 -1.35095,-1.11521 -2.75641,-2.16679 -4.21163,-3.1502 -1.45522,-0.9834 -2.96051,-1.89849 -4.51084,-2.74091 -1.55032,-0.84242 -3.14587,-1.61198 -4.78213,-2.30426 -0.81813,-0.34613 -1.64619,-0.6729 -2.48409,-0.97978 -0.8379,-0.30688 -1.68544,-0.59393 -2.54196,-0.86041 -0.85652,-0.26648 -1.72223,-0.51249 -2.59623,-0.73742 -0.87399,-0.22493 -1.75654,-0.4291 -2.64686,-0.61134 -0.89033,-0.18223 -1.78839,-0.34271 -2.6939,-0.4811 -0.9055,-0.1384 -1.81827,-0.25438 -2.73781,-0.34779 -0.91954,-0.0934 -1.84569,-0.16408 -2.77813,-0.21135 -0.93243,-0.0473 -1.87115,-0.0713 -2.81533,-0.0713 z"
       style="display:inline;opacity:1;fill:#561420;fill-opacity:1;fill-rule:evenodd;stroke:#000000;stroke-width:0.529167;stroke-linecap:round;stroke-linejoin:round;stroke-miterlimit:4.3;stroke-dasharray:none;stroke-opacity:0.349398;paint-order:normal"
       id="rect3482-2" />
    <path
       inkscape:export-ydpi="96"
       inkscape:export-xdpi="96"
       d="m 128.0108,215.31569 c 0.5511,1.22464 1.04096,2.48244 1.46597,3.76955 0.425,1.2871 0.78523,2.60338 1.07636,3.9453 0.29112,1.34191 0.51342,2.70962 0.66288,4.0987 0.14946,1.38907 0.22603,2.79965 0.22604,4.22823 1e-5,0.96986 -0.036,1.93565 -0.10718,2.89535 -0.0712,0.9597 -0.17772,1.91317 -0.31849,2.85929 -0.14076,0.94611 -0.31602,1.88446 -0.52472,2.81357 -0.20869,0.92911 -0.45088,1.84902 -0.72587,2.7577 -0.27498,0.90867 -0.5823,1.80632 -0.92194,2.69115 -0.33963,0.88482 -0.7113,1.7569 -1.11395,2.61445 -0.40264,0.85755 -0.83634,1.70075 -1.30036,2.52759 -0.46403,0.82685 -0.95846,1.63735 -1.48222,2.43007 -0.54389,0.82319 -1.11958,1.62711 -1.72604,2.40974 -0.60645,0.78264 -1.24369,1.54403 -1.91093,2.28225 -0.66724,0.73823 -1.3645,1.45312 -2.09075,2.14307 -0.72625,0.68995 -1.48149,1.35491 -2.26498,1.99271 l -53.697102,47.34663 -0.08483,0.0747 -0.08483,-0.0747 -24.13454,21.28032 24.503316,21.7243 24.220389,-21.47286 33.551037,-29.74541 15.15031,-13.4319 c 0.7185,-0.58811 1.41961,-1.19304 2.10294,-1.81391 0.68333,-0.62088 1.34886,-1.25787 1.99627,-1.90991 0.64741,-0.65205 1.27684,-1.31927 1.88757,-2.00085 0.61073,-0.68157 1.20252,-1.37717 1.77581,-2.08667 0.5733,-0.70954 1.12795,-1.43262 1.66305,-2.16848 0.5351,-0.73586 1.05109,-1.48458 1.54724,-2.24517 0.49615,-0.76058 0.97243,-1.53308 1.42888,-2.31679 0.45645,-0.7837 0.89302,-1.57863 1.309,-2.38384 0.41599,-0.80521 0.81131,-1.62069 1.18608,-2.44581 0.37477,-0.82511 0.72884,-1.6598 1.06163,-2.50321 0.3328,-0.84341 0.64457,-1.69594 0.93464,-2.55604 0.29007,-0.86009 0.55853,-1.7281 0.80511,-2.60327 0.24659,-0.87518 0.47121,-1.7573 0.67356,-2.64595 0.20234,-0.88865 0.3821,-1.78353 0.53945,-2.68404 0.15734,-0.90051 0.29223,-1.80681 0.40382,-2.71757 0.11159,-0.91076 0.20007,-1.82609 0.26515,-2.7455 -0.0851,-1.0184 -0.20912,-2.02597 -0.37081,-3.02082 -0.16168,-0.99485 -0.36108,-1.9768 -0.59634,-2.94514 -0.23525,-0.96833 -0.50637,-1.92297 -0.81222,-2.86182 -0.30584,-0.93885 -0.64652,-1.86197 -1.01998,-2.76836 -0.37345,-0.9064 -0.77999,-1.7958 -1.21807,-2.66678 -0.43809,-0.87098 -0.90783,-1.72344 -1.40755,-2.55604 -0.49973,-0.83258 -1.02949,-1.64542 -1.58787,-2.43666 -0.55839,-0.79124 -1.14499,-1.56124 -1.75906,-2.30816 -0.61406,-0.74691 -1.25535,-1.47087 -1.92211,-2.17049 -0.66675,-0.69963 -1.35904,-1.37484 -2.07551,-2.02421 -0.71647,-0.64938 -1.45708,-1.27313 -2.22028,-1.86928 -0.76319,-0.59615 -1.54896,-1.16474 -2.3559,-1.7047 -0.80694,-0.53996 -1.63518,-1.0512 -2.48289,-1.532 -0.8477,-0.4808 -1.71474,-0.93096 -2.60023,-1.34964 -0.88548,-0.41868 -1.78916,-0.80557 -2.70944,-1.15916 -0.92028,-0.35358 -1.85741,-0.674 -2.80951,-0.95953 z"
       style="display:inline;opacity:1;fill:#d35f5f;fill-opacity:1;fill-rule:evenodd;stroke:url(#linearGradient1056);stroke-width:0.520147;stroke-linecap:round;stroke-linejoin:round;stroke-miterlimit:4.3;stroke-dasharray:none;stroke-opacity:0.164659;paint-order:normal"
       id="path27985" />
    <path
       d="m 63.067984,309.88239 -0.0863,0.076 0.0863,0.076 0.0863,-0.076 z"
       style="display:inline;opacity:1;fill:#800000;fill-opacity:1;fill-rule:evenodd;stroke:none;stroke-width:19.8438;stroke-linecap:round;stroke-linejoin:round;stroke-miterlimit:4.3;stroke-dasharray:none;stroke-opacity:0.971888;paint-order:normal"
       id="path27979-8" />
    <path
       d="m 23.238375,190.86279 c -0.944182,0 -1.882894,0.024 -2.815331,0.0713 -0.932436,0.0473 -1.858581,0.11795 -2.778125,0.21135 -0.919543,0.0934 -1.832311,0.20939 -2.737818,0.34779 -0.905505,0.13839 -1.803569,0.29887 -2.693892,0.4811 -0.890323,0.18224 -1.772873,0.38641 -2.6468645,0.61134 -0.873996,0.22493 -1.739704,0.47094 -2.596224,0.73742 -0.85652,0.26648 -1.704065,0.55353 -2.541966,0.86041 -0.8378981,0.30688 -1.6659521,0.63365 -2.4840861,0.97978 -1.50987594,0.63881 -2.9756459,1.35954 -4.4126489,2.12649 -17.0508835,9.26745 -28.6260215,27.33872 -28.6261595,48.11489 -6e-6,0.58887 0.03023,1.17366 0.04909,1.7601 0.03687,-0.25913 0.05428,-0.52435 0.09612,-0.78186 0.164457,-1.01215 0.367366,-2.01155 0.606682,-2.99672 0.239315,-0.98517 0.515166,-1.95628 0.826305,-2.91145 0.31114,-0.95517 0.657218,-1.89421 1.037146,-2.81637 0.379929,-0.92215 0.79352,-1.8274 1.239201,-2.71353 0.445682,-0.88612 0.923555,-1.75328 1.431954,-2.60035 0.5084,-0.84707 1.047324,-1.67393 1.615405,-2.47892 0.568082,-0.805 1.165343,-1.58827 1.790072,-2.34818 0.624729,-0.7599 1.277096,-1.49634 1.955436,-2.20813 0.678341,-0.7118 1.382582,-1.39864 2.111499,-2.05931 0.728917,-0.66066 1.482319,-1.29518 2.258777,-1.90169 0.776458,-0.60652 1.576305,-1.18491 2.397269,-1.73426 0.820964,-0.54935 1.662993,-1.0694 2.525427,-1.55856 0.862435,-0.48916 1.7449643,-0.94761 2.6458343,-1.37356 0.900869,-0.42596 1.8201512,-0.81953 2.7564212,-1.17926 0.936269,-0.35973 1.889589,-0.68568 2.858224,-0.97617 0.919506,-0.27575 1.852895,-0.5198 2.79879396,-0.7307 0.945901,-0.2109 1.90448394,-0.38843 2.87424294,-0.53175 0.9697611,-0.14332 1.9508521,-0.25254 2.9419391,-0.32556 0.991089,-0.073 1.992003,-0.11008 3.001885,-0.11007 0.986195,0 1.9683355,0.0853 2.9450395,0.24598 0.976702,0.16065 1.94777,0.39648 2.911449,0.69866 0.963678,0.30218 1.920406,0.67044 2.867525,1.09502 0.947118,0.42459 1.88469,0.90565 2.811716,1.43351 0.927023,0.52786 1.843204,1.1026 2.746603,1.71462 0.903393,0.61202 1.794404,1.26134 2.670635,1.93839 0.876236,0.67705 1.737765,1.38182 2.583307,2.10478 0.845539,0.72295 1.674841,1.46408 2.486152,2.21382 1.272492,1.17591 2.500654,2.37291 3.677811,3.5543 0.147146,0.14767 0.293714,0.29524 0.439251,0.44235 0.145537,0.14712 0.290179,0.29387 0.434081,0.44028 0.143901,0.14641 0.286676,0.29214 0.428916,0.4377 0.142237,0.14556 0.283715,0.29107 0.424262,0.43564 0.140546,0.14456 0.28027,0.28858 0.419097,0.43201 0.138829,0.14342 0.276844,0.28626 0.413927,0.4284 0.137081,0.14214 0.27345,0.28355 0.40876,0.42426 0.135308,0.14071 0.269571,0.28048 0.403077,0.41962 0.189982,-0.19799 0.382119,-0.39784 0.576191,-0.59893 0.194072,-0.2011 0.390015,-0.40341 0.588079,-0.6072 0.198065,-0.20379 0.398007,-0.40888 0.599964,-0.61495 0.201956,-0.20607 0.406101,-0.41321 0.611849,-0.62115 0.205745,-0.20794 0.413263,-0.41642 0.622699,-0.62581 0.209437,-0.20939 0.420529,-0.4195 0.633556,-0.62993 0.213024,-0.21043 0.427889,-0.42146 0.644403,-0.63252 0.216516,-0.21106 0.434837,-0.42228 0.654741,-0.63355 0.879617,-0.84508 1.785799,-1.69049 2.715596,-2.52233 0.929796,-0.83184 1.883145,-1.65017 2.856674,-2.44223 0.973526,-0.79206 1.967301,-1.55783 2.978113,-2.28358 1.010811,-0.72575 2.038781,-1.41143 3.080432,-2.04432 1.041652,-0.63289 2.097072,-1.21301 3.163113,-1.72651 1.066043,-0.5135 2.142688,-0.96051 3.226678,-1.32808 -0.359759,-0.37262 -0.732769,-0.75228 -1.100709,-1.12965 -1.105707,-1.13406 -2.247628,-2.28674 -3.422531,-3.43958 -1.174903,-1.15285 -2.38289,-2.30597 -3.62045,-3.44165 -1.237559,-1.13568 -2.504543,-2.25367 -3.798218,-3.33624 -1.293672,-1.08256 -2.614136,-2.12983 -3.95738,-3.12332 -1.343248,-0.99349 -2.709598,-1.93342 -4.095875,-2.80189 -1.386276,-0.86847 -2.792478,-1.66497 -4.215246,-2.37247 -0.711383,-0.35375 -1.426842,-0.68542 -2.146123,-0.99218 -0.719277,-0.30677 -1.441984,-0.58911 -2.168342,-0.8444 -0.726358,-0.25528 -1.456396,-0.48333 -2.189014,-0.68264 -0.732618,-0.19932 -1.468007,-0.36965 -2.206067,-0.5085 -0.760095,-0.14299 -1.522849,-0.25357 -2.287714,-0.32815 -0.764866,-0.0746 -1.531843,-0.11317 -2.300637,-0.11317 z"
       style="display:inline;opacity:1;fill:#3e1420;fill-opacity:1;fill-rule:evenodd;stroke:#000000;stroke-width:0.529167;stroke-linecap:round;stroke-linejoin:round;stroke-miterlimit:4.3;stroke-dasharray:none;stroke-opacity:0.148594;paint-order:normal"
       id="path27969" />
    <path
       d="m -2.5772075,214.90906 c -0.95237,0.2856 -1.889689,0.60609 -2.810238,0.95977 -0.920549,0.35369 -1.824397,0.74066 -2.7101432,1.15946 -0.885744,0.4188 -1.753456,0.86955 -2.6014123,1.3505 -0.847955,0.48095 -1.675847,0.99227 -2.483028,1.53239 -0.807181,0.54013 -1.593599,1.10882 -2.357022,1.70515 -0.763423,0.59633 -1.504174,1.22019 -2.220854,1.86976 -0.716679,0.64958 -1.409097,1.3249 -2.076049,2.02474 -0.666952,0.69984 -1.308366,1.42391 -1.922607,2.17105 -0.61424,0.74716 -1.201474,1.51728 -1.760018,2.30876 -0.558544,0.79149 -1.088421,1.60445 -1.588284,2.4373 -0.499864,0.83285 -0.969714,1.68546 -1.407913,2.5567 -0.438199,0.87125 -0.844846,1.7613 -1.218396,2.66798 -0.37355,0.90667 -0.713818,1.82994 -1.019734,2.76907 -0.305916,0.93914 -0.577135,1.89394 -0.812433,2.86257 -0.235298,0.96863 -0.4348,1.95126 -0.596496,2.94641 -0.04114,0.25319 -0.05825,0.51396 -0.0945,0.76874 0.498286,15.49366 7.639858,30.05778 19.676739,39.91034 L 2.6352714,298.62576 38.051572,330.0246 62.192377,308.73875 8.4818465,261.37983 c -0.783715,-0.63798 -1.539124,-1.30306 -2.265566,-1.99322 -0.726446,-0.69018 -1.423885,-1.40567 -2.091294,-2.14414 -0.6674081,-0.73846 -1.3048211,-1.49995 -1.9114291,-2.28284 -0.6066069,-0.78289 -1.1824409,-1.58693 -1.72648494,-2.41037 -0.523875,-0.79292 -1.018453,-1.60365 -1.482601,-2.4307 -0.46414796,-0.82704 -0.89793196,-1.67049 -1.30070796,-2.52824 -0.402772,-0.85776 -0.774483,-1.7301 -1.114237,-2.61514 -0.339754,-0.88503 -0.647596,-1.78245 -0.922689,-2.69134 -0.27509,-0.90888 -0.517274,-1.82909 -0.726057,-2.75841 -0.208783,-0.92932 -0.384025,-1.86797 -0.524855,-2.81431 -0.14083,-0.94633 -0.247341,-1.9001 -0.318572,-2.86002 -0.07123,-0.95993 -0.107217,-1.92602 -0.107206,-2.89611 10e-6,-1.42895 0.07655,-2.83989 0.226099,-4.22933 0.14955,-1.38943 0.372296,-2.75749 0.663562,-4.09976 0.291269,-1.34226 0.651475,-2.65888 1.076639,-3.94633 0.425167,-1.28743 0.915104,-2.54556 1.466345,-3.77051 z"
       style="display:inline;opacity:1;fill:#f4d7d7;fill-opacity:1;fill-rule:evenodd;stroke:#000000;stroke-width:0.520282;stroke-linecap:round;stroke-linejoin:round;stroke-miterlimit:4.3;stroke-dasharray:none;stroke-opacity:0;paint-order:normal"
       id="path27963" />
    <text
       xml:space="preserve"
       style="font-style:normal;font-weight:normal;font-size:10.5833px;line-height:1.25;font-family:sans-serif;white-space:pre;inline-size:206.452;fill:#000000;fill-opacity:1;stroke:url(#linearGradient1064);stroke-width:0.264583;stroke-opacity:0.164659"
       x="224.50639"
       y="215.52615"
       id="text1020"
       transform="matrix(4.1816722,0,0,4.1816722,-1037.8239,-515.98429)"><tspan
         x="224.50639"
         y="215.52615"
         id="tspan3393"
         style="stroke:url(#linearGradient1064)"><tspan
           style="font-style:normal;font-variant:normal;font-weight:normal;font-stretch:normal;font-family:'Cooper Black';-inkscape-font-specification:'Cooper Black, ';stroke:url(#linearGradient1064);stroke-width:0.264583;stroke-opacity:0.164659"
           id="tspan3391">Mid-Columbia 
Transport Plus</tspan></tspan></text>
    <text
       xml:space="preserve"
       id="text3447"
       style="fill:black;fill-opacity:1;line-height:1.25;stroke:none;font-family:sans-serif;font-style:normal;font-weight:normal;font-size:10.5833333px;white-space:pre;shape-inside:url(#rect3449)"><tspan
         sodipodi:role="line"
         id="tspan3451"></tspan></text>
    <text
       xml:space="preserve"
       id="text3453"
       style="fill:black;fill-opacity:1;line-height:1.25;stroke:none;font-family:sans-serif;font-style:normal;font-weight:normal;font-size:10.5833333px;white-space:pre;shape-inside:url(#rect3455)"><tspan
         sodipodi:role="line"
         id="tspan3457"></tspan></text>
  </g>
  <g
     transform="translate(99.567189,-190.59819)"
     inkscape:groupmode="layer"
     id="layer3"
     inkscape:label="heart 1"
     style="display:none">
    <text
       xml:space="preserve"
       style="font-style:normal;font-variant:normal;font-weight:normal;font-stretch:normal;font-size:14.4572px;line-height:1.25;font-family:'Segoe Script';-inkscape-font-specification:'Segoe Script';display:inline;stroke-width:0.264584"
       x="50.187176"
       y="45.974171"
       id="text1039"><tspan
         sodipodi:role="line"
         id="tspan1037"
         x="50.187176"
         y="45.974171"
         style="font-style:normal;font-variant:normal;font-weight:bold;font-stretch:normal;font-family:'Segoe Script';-inkscape-font-specification:'Segoe Script';stroke-width:0.264584">Compassionate</tspan><tspan
         sodipodi:role="line"
         x="50.187176"
         y="64.049171"
         style="font-style:normal;font-variant:normal;font-weight:bold;font-stretch:normal;font-family:'Segoe Script';-inkscape-font-specification:'Segoe Script';stroke-width:0.264584"
         id="tspan1041">Transfer &amp; Removal</tspan></text>
  </g>
</svg>
